#N canvas 592 264 817 539 10;
#X msg 164 187 6;
#X msg 127 187 234;
#X msg 533 171 1;
#X msg 501 171 54;
#X msg 470 171 23;
#X msg 434 172 234;
#X msg 73 187 6;
#X obj 36 247 select 6;
#X msg 36 187 234;
#X msg 598 185 symbol cort;
#X msg 637 212 symbol zack;
#X msg 663 237 symbol bill;
#X obj 36 26 loadbang;
#X obj 36 162 t b b;
#X obj 36 106 t b b b b;
#X obj 40 488 print A;
#X obj 236 486 print B;
#X obj 210 156 t b b;
#X obj 210 110 t b b b b;
#X msg 332 181 symbol zack;
#X msg 295 208 symbol cort;
#X msg 247 181 symbol zack;
#X msg 210 206 symbol cort;
#X obj 210 241 sel cort;
#X obj 434 139 t b b b b;
#X obj 369 481 print C;
#X obj 515 479 print D;
#X obj 597 275 select cort zack;
#X obj 434 210 sel 1 54 23;
#X obj 36 48 t b b b b;
#X obj 598 131 t b b b;
#X connect 0 0 7 1;
#X connect 1 0 7 1;
#X connect 2 0 28 0;
#X connect 3 0 28 0;
#X connect 4 0 28 0;
#X connect 5 0 28 0;
#X connect 6 0 7 0;
#X connect 7 0 15 0;
#X connect 7 1 16 0;
#X connect 8 0 7 0;
#X connect 9 0 27 0;
#X connect 10 0 27 0;
#X connect 11 0 27 0;
#X connect 12 0 29 0;
#X connect 13 0 8 0;
#X connect 13 1 6 0;
#X connect 14 0 13 0;
#X connect 14 1 1 0;
#X connect 14 2 13 0;
#X connect 14 3 0 0;
#X connect 17 0 22 0;
#X connect 17 1 21 0;
#X connect 18 0 17 0;
#X connect 18 1 20 0;
#X connect 18 2 17 0;
#X connect 18 3 19 0;
#X connect 19 0 23 1;
#X connect 20 0 23 1;
#X connect 21 0 23 0;
#X connect 22 0 23 0;
#X connect 23 0 15 0;
#X connect 23 1 16 0;
#X connect 24 0 5 0;
#X connect 24 1 4 0;
#X connect 24 2 3 0;
#X connect 24 3 2 0;
#X connect 27 0 15 0;
#X connect 27 1 16 0;
#X connect 27 2 25 0;
#X connect 28 0 15 0;
#X connect 28 1 16 0;
#X connect 28 2 25 0;
#X connect 28 3 26 0;
#X connect 29 0 14 0;
#X connect 29 1 18 0;
#X connect 29 2 24 0;
#X connect 29 3 30 0;
#X connect 30 0 9 0;
#X connect 30 1 10 0;
#X connect 30 2 11 0;
