#N canvas 0 22 450 300 10;
#X obj 107 34 loadbang;
#X msg 107 56 1;
#X obj 107 119 s \$1-test;
#X obj 104 149 r \$1-test;
#X obj 104 245 print;
#X obj 214 134 f \$1;
#X obj 267 137 symbol \$2;
#X obj 104 189 +;
#X obj 107 78 t f b b;
#X connect 0 0 1 0;
#X connect 1 0 8 0;
#X connect 3 0 7 0;
#X connect 5 0 7 1;
#X connect 6 0 4 0;
#X connect 7 0 4 0;
#X connect 8 0 2 0;
#X connect 8 1 5 0;
#X connect 8 2 6 0;
