#N canvas 409 120 216 200 10;
#X obj 25 27 loadbang;
#X obj 25 119 tgl 15 0 empty empty empty 17 7 0 10 -262144 -1 -1 0
1;
#X obj 147 85 bng 15 250 50 0 empty empty empty 17 7 0 10 -262144 -1
-1;
#X msg 115 85 1;
#X msg 84 85 0;
#X msg 50 85 -34;
#X obj 25 85 bng 15 250 50 0 empty empty empty 17 7 0 10 -262144 -1
-1;
#X obj 25 49 t b b b b b;
#X obj 25 149 print;
#X connect 0 0 7 0;
#X connect 1 0 8 0;
#X connect 2 0 1 0;
#X connect 3 0 1 0;
#X connect 4 0 1 0;
#X connect 5 0 1 0;
#X connect 6 0 1 0;
#X connect 7 0 6 0;
#X connect 7 1 5 0;
#X connect 7 2 4 0;
#X connect 7 3 3 0;
#X connect 7 4 2 0;
