#N canvas 231 101 316 289 10;
#X obj 35 33 loadbang;
#X obj 35 75 t b b b b b b;
#X msg 35 117 -100;
#X msg 137 117 2;
#X obj 35 216 print;
#X obj 35 184 max -100;
#X msg 207 117 0;
#X msg 171 117 100;
#X msg 105 117 150;
#X msg 73 117 0;
#X connect 0 0 1 0;
#X connect 1 0 2 0;
#X connect 1 1 9 0;
#X connect 1 2 8 0;
#X connect 1 3 3 0;
#X connect 1 4 7 0;
#X connect 1 5 6 0;
#X connect 2 0 5 0;
#X connect 3 0 5 0;
#X connect 5 0 4 0;
#X connect 6 0 5 0;
#X connect 7 0 5 1;
#X connect 8 0 5 0;
#X connect 9 0 5 1;
