#N canvas 0 26 347 299 10;
#X obj 33 29 loadbang;
#X obj 33 59 t b b b b b b b b;
#X obj 33 175 print;
#X msg 68 95 0;
#X obj 33 145 mod 4;
#X msg 33 95 -100;
#X msg 98 95 3;
#X msg 132 95 10;
#X obj 100 26 bng 15 250 50 0 empty empty empty 17 7 0 10 -262144 -1
-1;
#X msg 198 95 0;
#X msg 163 95 -100;
#X msg 228 95 3;
#X msg 262 95 10;
#X obj 87 144 % 3;
#X connect 0 0 1 0;
#X connect 1 0 5 0;
#X connect 1 1 3 0;
#X connect 1 2 6 0;
#X connect 1 3 7 0;
#X connect 1 4 10 0;
#X connect 1 5 9 0;
#X connect 1 6 11 0;
#X connect 1 7 12 0;
#X connect 3 0 4 0;
#X connect 4 0 2 0;
#X connect 5 0 4 0;
#X connect 6 0 4 0;
#X connect 7 0 4 0;
#X connect 8 0 1 0;
#X connect 9 0 13 0;
#X connect 10 0 13 0;
#X connect 11 0 13 0;
#X connect 12 0 13 0;
#X connect 13 0 2 0;
