#N canvas 750 181 185 214 10;
#X obj 34 40 loadbang;
#X obj 34 156 print;
#X msg 34 92 2;
#X msg 66 92 -2;
#X obj 34 62 t b b b b;
#X msg 127 92 -5;
#X msg 96 92 3;
#X obj 34 134 pow 2;
#X connect 0 0 4 0;
#X connect 2 0 7 0;
#X connect 3 0 7 1;
#X connect 4 0 2 0;
#X connect 4 1 3 0;
#X connect 4 2 6 0;
#X connect 4 3 5 0;
#X connect 5 0 7 0;
#X connect 6 0 7 0;
#X connect 7 0 1 0;
