#N canvas 0 22 450 300 10;
#X obj 139 108 loadbang;
#X msg 139 130 0.5;
#X obj 139 152 print;
#X obj 136 70 inlet;
#X obj 236 68 inlet~;
#X obj 142 202 outlet;
#X obj 236 202 outlet~;
#X connect 0 0 1 0;
#X connect 1 0 2 0;
#X connect 4 0 6 0;
