#N canvas -1433 -248 1219 770 10;
#X obj 407 579 + 1;
#X obj 25 57 loadbang;
#X obj 25 90 t b b b b b b b b b b b b b b b b b b b b b b b b b b
b b b;
#X obj 376 118 t b b b b b b b b b b b b b b b b b b b b b b b b b
b b b b;
#X obj 489 204 t b;
#X obj 520 203 t b b b b b b b b b b b b b b b b b b b b b b b b b
b b b b;
#X obj 633 289 t b;
#X obj 667 291 t b b b b b b b b b b b b b b b b b b b b b b b b b
b b b b;
#X obj 780 377 t b;
#X obj 815 377 t b b b b b b b b b b b b b b b b b b b b b b b b b
b b b b;
#X obj 928 463 t b;
#X obj 349 651 print;
#X obj 349 617 mtof;
#X obj 349 580 f -12;
#X text 407 82 // Note(joe): many triggers is because i don't have
[until] right now;
#X connect 0 0 13 1;
#X connect 1 0 2 0;
#X connect 2 0 13 0;
#X connect 2 1 13 0;
#X connect 2 2 13 0;
#X connect 2 3 13 0;
#X connect 2 4 13 0;
#X connect 2 5 13 0;
#X connect 2 6 13 0;
#X connect 2 7 13 0;
#X connect 2 8 13 0;
#X connect 2 9 13 0;
#X connect 2 10 13 0;
#X connect 2 11 13 0;
#X connect 2 12 13 0;
#X connect 2 13 13 0;
#X connect 2 14 13 0;
#X connect 2 15 13 0;
#X connect 2 16 13 0;
#X connect 2 17 13 0;
#X connect 2 18 13 0;
#X connect 2 19 13 0;
#X connect 2 20 13 0;
#X connect 2 21 13 0;
#X connect 2 22 13 0;
#X connect 2 23 13 0;
#X connect 2 24 13 0;
#X connect 2 25 13 0;
#X connect 2 26 13 0;
#X connect 2 27 13 0;
#X connect 2 28 3 0;
#X connect 3 0 4 0;
#X connect 3 1 4 0;
#X connect 3 2 4 0;
#X connect 3 3 4 0;
#X connect 3 4 4 0;
#X connect 3 5 4 0;
#X connect 3 6 4 0;
#X connect 3 7 4 0;
#X connect 3 8 4 0;
#X connect 3 9 4 0;
#X connect 3 10 4 0;
#X connect 3 11 4 0;
#X connect 3 12 4 0;
#X connect 3 13 4 0;
#X connect 3 14 4 0;
#X connect 3 15 4 0;
#X connect 3 16 4 0;
#X connect 3 17 4 0;
#X connect 3 18 4 0;
#X connect 3 19 4 0;
#X connect 3 20 4 0;
#X connect 3 21 4 0;
#X connect 3 22 4 0;
#X connect 3 23 4 0;
#X connect 3 24 4 0;
#X connect 3 25 4 0;
#X connect 3 26 4 0;
#X connect 3 27 4 0;
#X connect 3 28 5 0;
#X connect 4 0 13 0;
#X connect 5 0 6 0;
#X connect 5 1 6 0;
#X connect 5 2 6 0;
#X connect 5 3 6 0;
#X connect 5 4 6 0;
#X connect 5 5 6 0;
#X connect 5 6 6 0;
#X connect 5 7 6 0;
#X connect 5 8 6 0;
#X connect 5 9 6 0;
#X connect 5 10 6 0;
#X connect 5 11 6 0;
#X connect 5 12 6 0;
#X connect 5 13 6 0;
#X connect 5 14 6 0;
#X connect 5 15 6 0;
#X connect 5 16 6 0;
#X connect 5 17 6 0;
#X connect 5 18 6 0;
#X connect 5 19 6 0;
#X connect 5 20 6 0;
#X connect 5 21 6 0;
#X connect 5 22 6 0;
#X connect 5 23 6 0;
#X connect 5 24 6 0;
#X connect 5 25 6 0;
#X connect 5 26 6 0;
#X connect 5 27 6 0;
#X connect 5 28 7 0;
#X connect 6 0 13 0;
#X connect 7 0 8 0;
#X connect 7 1 8 0;
#X connect 7 2 8 0;
#X connect 7 3 8 0;
#X connect 7 4 8 0;
#X connect 7 5 8 0;
#X connect 7 6 8 0;
#X connect 7 7 8 0;
#X connect 7 8 8 0;
#X connect 7 9 8 0;
#X connect 7 10 8 0;
#X connect 7 11 8 0;
#X connect 7 12 8 0;
#X connect 7 13 8 0;
#X connect 7 14 8 0;
#X connect 7 15 8 0;
#X connect 7 16 8 0;
#X connect 7 17 8 0;
#X connect 7 18 8 0;
#X connect 7 19 8 0;
#X connect 7 20 8 0;
#X connect 7 21 8 0;
#X connect 7 22 8 0;
#X connect 7 23 8 0;
#X connect 7 24 8 0;
#X connect 7 25 8 0;
#X connect 7 26 8 0;
#X connect 7 27 8 0;
#X connect 7 28 9 0;
#X connect 8 0 13 0;
#X connect 9 0 10 0;
#X connect 9 1 10 0;
#X connect 9 2 10 0;
#X connect 9 3 10 0;
#X connect 9 4 10 0;
#X connect 9 5 10 0;
#X connect 9 6 10 0;
#X connect 9 7 10 0;
#X connect 9 8 10 0;
#X connect 9 9 10 0;
#X connect 9 10 10 0;
#X connect 9 11 10 0;
#X connect 9 12 10 0;
#X connect 9 13 10 0;
#X connect 9 14 10 0;
#X connect 9 15 10 0;
#X connect 9 16 10 0;
#X connect 9 17 10 0;
#X connect 9 18 10 0;
#X connect 9 19 10 0;
#X connect 9 20 10 0;
#X connect 9 21 10 0;
#X connect 9 22 10 0;
#X connect 9 23 10 0;
#X connect 9 24 10 0;
#X connect 9 25 10 0;
#X connect 9 26 10 0;
#X connect 9 27 10 0;
#X connect 10 0 13 0;
#X connect 12 0 11 0;
#X connect 13 0 0 0;
#X connect 13 0 12 0;
