#N canvas 45 116 448 243 10;
#N canvas 0 22 450 278 (subpatch) 0;
#X array array1 3 float 3;
#A 0 1 0 -1;
#X coords 0 1 3 -1 200 140 1;
#X restore 215 44 graph;
#X obj 32 151 tabread array1;
#X msg 92 110 1;
#X obj 32 78 t b b b b b;
#X obj 31 43 loadbang;
#X msg 32 110 3;
#X msg 62 110 2;
#X msg 122 110 0;
#X msg 152 110 -1;
#X obj 32 173 print;
#X connect 1 0 9 0;
#X connect 2 0 1 0;
#X connect 3 0 5 0;
#X connect 3 1 6 0;
#X connect 3 2 2 0;
#X connect 3 3 7 0;
#X connect 3 4 8 0;
#X connect 4 0 3 0;
#X connect 5 0 1 0;
#X connect 6 0 1 0;
#X connect 7 0 1 0;
#X connect 8 0 1 0;
