#N canvas 632 324 729 540 10;
#X msg 120 189 60 64;
#X msg 171 189 60 0;
#X msg 215 189 62 64;
#X msg 262 189 62 0;
#X obj 158 383 pack 0 0 0;
#X obj 158 346 poly 8 1;
#X msg 372 176 clear;
#X msg 383 117 stop;
#X obj 194 25 loadbang;
#X obj 158 428 print;
#X obj 228 112 t b b;
#X obj 169 112 t b b;
#X obj 194 47 t b b b b b b b;
#X msg 100 127 70 3;
#X obj 126 297 t a;
#X connect 0 0 14 0;
#X connect 1 0 14 0;
#X connect 2 0 14 0;
#X connect 3 0 14 0;
#X connect 4 0 9 0;
#X connect 5 0 4 0;
#X connect 5 1 4 1;
#X connect 5 2 4 2;
#X connect 6 0 14 0;
#X connect 7 0 14 0;
#X connect 8 0 12 0;
#X connect 10 0 0 0;
#X connect 10 1 2 0;
#X connect 11 0 1 0;
#X connect 11 1 3 0;
#X connect 12 0 7 0;
#X connect 12 1 10 0;
#X connect 12 2 6 0;
#X connect 12 3 13 0;
#X connect 12 4 10 0;
#X connect 12 5 11 0;
#X connect 12 6 10 0;
#X connect 13 0 14 0;
#X connect 14 0 5 0;
