#N canvas 107 102 326 325 10;
#X msg 210 130 flush;
#X obj 32 31 loadbang;
#X obj 35 271 print;
#X msg 256 130 100;
#X obj 215 103 t b b;
#X obj 140 104 t b b;
#X msg 181 131 200;
#X msg 135 131 clear;
#X msg 36 128 -200;
#X obj 34 60 t b b b b;
#X obj 35 213 pipe 1000;
#X msg 80 130 1 500;
#X obj 34 97 del 100;
#X connect 0 0 10 0;
#X connect 1 0 9 0;
#X connect 3 0 10 0;
#X connect 4 0 0 0;
#X connect 4 1 3 0;
#X connect 5 0 7 0;
#X connect 5 1 6 0;
#X connect 6 0 10 0;
#X connect 7 0 10 0;
#X connect 8 0 10 0;
#X connect 9 0 12 0;
#X connect 9 1 11 0;
#X connect 9 2 5 0;
#X connect 9 3 4 0;
#X connect 10 0 2 0;
#X connect 11 0 10 0;
#X connect 12 0 8 0;
