#N canvas 643 219 450 300 10;
#X obj 104 17 loadbang;
#X obj 104 183 print;
#X obj 173 17 bng 15 250 50 0 empty empty empty 17 7 0 10 -262144 -1
-1;
#X msg 235 99 -2 3 5;
#X msg 139 99 -14.3;
#X msg 104 99 3.7;
#X msg 197 99 0;
#X obj 104 54 t b b b b;
#X obj 104 148 atan;
#X connect 0 0 7 0;
#X connect 2 0 7 0;
#X connect 3 0 8 0;
#X connect 4 0 8 0;
#X connect 5 0 8 0;
#X connect 6 0 8 0;
#X connect 7 0 5 0;
#X connect 7 1 4 0;
#X connect 7 2 6 0;
#X connect 7 3 3 0;
#X connect 8 0 1 0;
