#N canvas 632 324 310 286 10;
#X obj 36 49 loadbang;
#X obj 36 189 wrap;
#X msg 182 129 -0.5;
#X msg 149 129 0;
#X msg 107 129 0.75;
#X msg 220 129 -10.234;
#X obj 36 79 t b b b b b;
#X obj 36 219 print;
#X msg 36 129 1000.92;
#X obj 169 213 dac~;
#X connect 0 0 6 0;
#X connect 1 0 7 0;
#X connect 2 0 1 0;
#X connect 3 0 1 0;
#X connect 4 0 1 0;
#X connect 5 0 1 0;
#X connect 6 0 8 0;
#X connect 6 1 4 0;
#X connect 6 2 3 0;
#X connect 6 3 2 0;
#X connect 6 4 5 0;
#X connect 8 0 1 0;
