#N canvas 430 62 241 214 10;
#X obj 32 18 loadbang;
#X obj 32 115 moses -1;
#X obj 32 147 print LHS;
#X obj 97 147 print RHS;
#X msg 72 81 -230;
#X obj 32 79 f 0;
#X obj 32 40 t b b;
#X connect 0 0 6 0;
#X connect 1 0 2 0;
#X connect 1 1 3 0;
#X connect 4 0 1 0;
#X connect 5 0 1 0;
#X connect 6 0 5 0;
#X connect 6 1 4 0;
