#N canvas 692 327 208 192 10;
#X obj 23 17 loadbang;
#X obj 23 134 random 10;
#X obj 23 157 print;
#X msg 62 96 seed 11;
#X obj 23 44 t a a a a a a a a;
#X msg 122 71 seed 7672;
#X connect 0 0 4 0;
#X connect 1 0 2 0;
#X connect 3 0 1 0;
#X connect 4 0 1 0;
#X connect 4 1 1 0;
#X connect 4 2 1 0;
#X connect 4 3 3 0;
#X connect 4 4 1 0;
#X connect 4 5 1 0;
#X connect 4 6 1 0;
#X connect 4 7 5 0;
#X connect 5 0 1 0;
