#N canvas 586 180 335 341 10;
#X msg 44 120 1 2;
#X obj 44 157 unpack 0 0 s f f;
#X obj 44 50 loadbang;
#X obj 44 82 t b b b;
#X msg 83 120 3 4 yes;
#X obj 46 292 print;
#X msg 162 120 5 6 no 7 8;
#X msg 122 241 yes;
#X obj 122 219 sel yes;
#X connect 0 0 1 0;
#X connect 1 0 5 0;
#X connect 1 1 5 0;
#X connect 1 2 8 0;
#X connect 1 3 5 0;
#X connect 1 4 5 0;
#X connect 2 0 3 0;
#X connect 3 0 0 0;
#X connect 3 1 4 0;
#X connect 3 2 6 0;
#X connect 4 0 1 0;
#X connect 6 0 1 0;
#X connect 7 0 5 0;
#X connect 8 0 7 0;
