#N canvas 538 240 187 195 10;
#X obj 41 14 loadbang;
#X obj 19 15 bng 15 250 50 0 empty empty empty 17 7 0 10 -262144 -1
-1;
#X msg 19 105 0;
#X obj 51 105 1;
#X obj 19 164 print;
#X msg 112 105 1;
#X obj 19 47 t b b b b;
#X obj 19 76 t b b;
#X msg 80 105 0;
#X obj 19 138 != 0;
#X connect 0 0 6 0;
#X connect 1 0 6 0;
#X connect 2 0 9 0;
#X connect 3 0 9 0;
#X connect 5 0 9 1;
#X connect 6 0 7 0;
#X connect 6 1 8 0;
#X connect 6 2 7 0;
#X connect 6 3 5 0;
#X connect 7 0 2 0;
#X connect 7 1 3 0;
#X connect 8 0 9 1;
#X connect 9 0 4 0;
