#N canvas 633 240 351 248 10;
#X obj 32 30 loadbang;
#X obj 32 196 print;
#X msg 163 112 -2 3 5;
#X msg 67 112 -14.3;
#X msg 32 112 3.7;
#X msg 125 112 0;
#X obj 32 67 t b b b b;
#X obj 32 161 tan;
#X connect 0 0 6 0;
#X connect 2 0 7 0;
#X connect 3 0 7 0;
#X connect 4 0 7 0;
#X connect 5 0 7 0;
#X connect 6 0 4 0;
#X connect 6 1 3 0;
#X connect 6 2 5 0;
#X connect 6 3 2 0;
#X connect 7 0 1 0;
