#N canvas 750 181 172 251 10;
#X obj 21 19 loadbang;
#X obj 45 199 print;
#X msg 21 139 1;
#X msg 50 139 0;
#X msg 21 79 1;
#X obj 21 49 t b b;
#X msg 48 79 0;
#X obj 21 109 t b b f;
#X obj 45 169 >=;
#X connect 0 0 5 0;
#X connect 2 0 8 0;
#X connect 3 0 8 0;
#X connect 4 0 7 0;
#X connect 5 0 4 0;
#X connect 5 1 6 0;
#X connect 6 0 7 0;
#X connect 7 0 2 0;
#X connect 7 1 3 0;
#X connect 7 2 8 1;
#X connect 8 0 1 0;
