#N canvas 750 181 363 362 10;
#X obj 24 31 loadbang;
#X obj 24 200 pack;
#X obj 24 127 t b b b;
#X msg 24 167 10;
#X msg 53 167 100;
#X obj 170 126 t b b;
#X obj 98 211 pack f f;
#X obj 117 181 t b f;
#X msg 128 155 200;
#X obj 98 124 t b b;
#X msg 98 154 10;
#X obj 24 326 print;
#X obj 24 75 t b b b;
#X msg 249 172 -2;
#X obj 170 211 pack 100 f;
#X connect 0 0 12 0;
#X connect 1 0 11 0;
#X connect 2 0 3 0;
#X connect 2 1 4 0;
#X connect 2 2 3 0;
#X connect 3 0 1 0;
#X connect 4 0 1 1;
#X connect 5 0 14 0;
#X connect 5 1 13 0;
#X connect 6 0 11 0;
#X connect 7 0 6 0;
#X connect 7 1 6 1;
#X connect 8 0 7 0;
#X connect 9 0 10 0;
#X connect 9 1 8 0;
#X connect 10 0 6 0;
#X connect 12 0 2 0;
#X connect 12 1 9 0;
#X connect 12 2 5 0;
#X connect 13 0 14 1;
#X connect 14 0 11 0;
