#N canvas 735 86 270 180 10;
#X obj 64 13 loadbang;
#X obj 13 114 print;
#X obj 49 87 +;
#X obj 13 87 +;
#X obj 76 87 +;
#X obj 103 87 +;
#X msg 64 36 1;
#X obj 64 61 t a a a;
#X obj 130 87 +;
#X text 24 140 ensure that unconnected binops do not;
#X text 23 156 cause a compilation error;
#X connect 0 0 6 0;
#X connect 2 0 1 0;
#X connect 3 0 1 0;
#X connect 6 0 7 0;
#X connect 7 0 2 1;
#X connect 7 1 4 1;
#X connect 7 2 5 0;
