#N canvas 632 324 277 253 10;
#X obj 33 146 tabread \$1-\$2;
#X obj 33 194 + \$3;
#X obj 33 13 loadbang;
#X obj 158 15 table \$1-\$2 10;
#X obj 33 35 t b b;
#X msg 33 123 \$1;
#X obj 77 104 tabwrite \$1-\$2;
#X msg 33 97 0;
#X msg 77 83 10;
#X obj 33 216 print;
#X connect 0 0 1 0;
#X connect 1 0 9 0;
#X connect 2 0 4 0;
#X connect 4 0 7 0;
#X connect 4 1 8 0;
#X connect 5 0 0 0;
#X connect 7 0 5 0;
#X connect 8 0 6 0;
