#N canvas 846 105 451 381 10;
#X obj 25 355 outlet~;
#X obj 166 303 * -1;
#X obj 202 303 * -1;
#X text 95 15 NOTE(mhroth): there is supposed to be a control;
#N canvas 0 22 450 300 @hv_obj 0;
#X obj 78 79 inlet~;
#X obj 86 146 outlet~;
#X obj 184 76 inlet;
#X obj 144 76 inlet;
#X obj 302 76 inlet;
#X obj 223 76 inlet;
#X obj 263 76 inlet;
#X restore 25 332 pd @hv_obj biquad \$3 \$4 \$5 0 0;
#X text 262 62 @hv_arg \$3 x0 float 1 false;
#X text 262 80 @hv_arg \$4 x1 float 0 false;
#X text 262 100 @hv_arg \$5 x2 float 0 false;
#X text 262 119 @hv_arg \$1 y0 float 0 false;
#X text 262 139 @hv_arg \$2 y1 float 0 false;
#N canvas 0 22 450 300 @hv_obj 0;
#X obj 165 61 inlet;
#X obj 169 116 outlet;
#X restore 62 110 pd @hv_obj __slice 0 1;
#N canvas 0 22 450 300 @hv_obj 0;
#X obj 165 61 inlet;
#X obj 169 116 outlet;
#X restore 86 133 pd @hv_obj __slice 1 1;
#N canvas 0 22 450 300 @hv_obj 0;
#X obj 165 61 inlet;
#X obj 169 116 outlet;
#X restore 109 156 pd @hv_obj __slice 2 1;
#N canvas 0 22 450 300 @hv_obj 0;
#X obj 165 61 inlet;
#X obj 169 116 outlet;
#X restore 134 179 pd @hv_obj __slice 3 1;
#N canvas 0 22 450 300 @hv_obj 0;
#X obj 165 61 inlet;
#X obj 169 116 outlet;
#X restore 162 202 pd @hv_obj __slice 4 1;
#X obj 166 226 loadbang;
#X text 94 28 connection from the left inlet to the trigger;
#N canvas 0 22 450 300 @hv_obj 0;
#X obj 179 57 inlet;
#X obj 169 117 outlet;
#X restore 166 255 pd @hv_obj __var \$1;
#N canvas 0 22 450 300 @hv_obj 0;
#X obj 179 57 inlet;
#X obj 169 117 outlet;
#X restore 202 276 pd @hv_obj __var \$2;
#X obj 25 23 inlet~ -~>;
#N canvas 0 22 162 66 to_control 0;
#X obj 17 10 inlet;
#X obj 17 32 outlet;
#X connect 0 0 1 0;
#X restore 62 67 pd to_control;
#X connect 1 0 4 4;
#X connect 2 0 4 5;
#X connect 4 0 0 0;
#X connect 10 0 1 0;
#X connect 11 0 2 0;
#X connect 12 0 4 1;
#X connect 13 0 4 2;
#X connect 14 0 4 3;
#X connect 15 0 17 0;
#X connect 15 0 18 0;
#X connect 17 0 1 0;
#X connect 18 0 2 0;
#X connect 19 0 20 0;
#X connect 19 0 4 0;
#X connect 20 0 10 0;
#X connect 20 0 11 0;
#X connect 20 0 12 0;
#X connect 20 0 13 0;
#X connect 20 0 14 0;
