#N canvas 515 39 304 425 10;
#X obj 47 248 *~;
#X obj 132 278 *~;
#X obj 147 220 *~;
#X text 173 219 x^2;
#X text 71 248 x^3;
#X text 156 278 x^5;
#X obj 32 348 +~;
#X obj 32 308 -~;
#X obj 47 278 *~ 0.166667;
#X obj 32 167 *~ 6.28319;
#X text 58 350 -5% to adjust for taylor expansion;
#X obj 132 308 *~ 0.00784314;
#X obj 32 17 inlet~;
#X obj 32 378 outlet~;
#X obj 32 137 -~ 0.25;
#X obj 32 77 -~ 0.5;
#X obj 32 107 abs~;
#X obj 32 47 wrap~;
#X connect 0 0 8 0;
#X connect 0 0 1 0;
#X connect 1 0 11 0;
#X connect 2 0 1 1;
#X connect 2 0 0 1;
#X connect 6 0 13 0;
#X connect 7 0 6 0;
#X connect 8 0 7 1;
#X connect 9 0 2 0;
#X connect 9 0 2 1;
#X connect 9 0 7 0;
#X connect 9 0 0 0;
#X connect 11 0 6 1;
#X connect 12 0 17 0;
#X connect 14 0 9 0;
#X connect 15 0 16 0;
#X connect 16 0 14 0;
#X connect 17 0 15 0;
