#N canvas 313 179 214 178 10;
#X obj 59 35 inlet~;
#X obj 20 15 inlet~;
#X obj 137 145 outlet~;
#X obj 98 77 *~ -1;
#X obj 137 76 inlet~;
#X obj 98 55 inlet~;
#N canvas 0 22 450 300 @hv_obj 0;
#X obj 204 68 inlet~;
#X obj 144 68 inlet~;
#X obj 225 128 outlet~;
#X obj 322 67 inlet~;
#X obj 262 67 inlet~;
#X obj 160 129 outlet~;
#X restore 20 120 pd @hv_obj __cpole~f;
#X obj 20 145 outlet~;
#X obj 137 98 *~ -1;
#X connect 0 0 6 1;
#X connect 1 0 6 0;
#X connect 3 0 6 2;
#X connect 4 0 8 0;
#X connect 5 0 3 0;
#X connect 6 0 7 0;
#X connect 6 1 2 0;
#X connect 8 0 6 3;
