#N canvas 34 251 267 184 10;
#X obj 54 107 outlet;
#X obj 89 86 outlet;
#X obj 20 129 outlet;
#X obj 20 63 unpack f f f;
#X obj 20 39 r __hv_ctlin;
#X text 20 21 data1/value data0/cc# channel;
#X connect 3 0 2 0;
#X connect 3 1 0 0;
#X connect 3 2 1 0;
#X connect 4 0 3 0;
