#N canvas 362 256 269 251 10;
#X obj 21 20 inlet;
#X obj 144 20 inlet;
#X obj 21 221 outlet;
#X text 67 221 @hv_arg \$1 delay float 0 false;
#N canvas 0 22 450 300 @hv_obj 0;
#X obj 179 47 inlet;
#X obj 275 124 outlet;
#X obj 209 124 outlet;
#X restore 21 43 pd @hv_obj __switchcase stop;
#X msg 21 149 clear;
#N canvas 377 209 450 300 @hv_obj 0;
#X obj 152 38 inlet;
#X obj 261 44 inlet;
#X obj 199 177 outlet;
#X restore 21 196 pd @hv_obj __delay \$1;
#X obj 186 67 t b a a;
#X connect 0 0 4 0;
#X connect 1 0 6 1;
#X connect 4 0 5 0;
#X connect 4 1 7 0;
#X connect 5 0 6 0;
#X connect 6 0 2 0;
#X connect 7 0 6 0;
#X connect 7 1 6 1;
#X connect 7 2 5 0;
