#N canvas 872 130 183 121 10;
#X obj 7 10 inlet;
#X obj 40 31 inlet;
#X obj 7 76 outlet;
#X text 7 96 @hv_arg \$1 k float 0 false;
#X obj 7 52 int \$1;
#X connect 0 0 4 0;
#X connect 1 0 4 1;
#X connect 4 0 2 0;
