#N canvas 872 130 257 234 10;
#X obj 14 10 inlet;
#X obj 14 56 f \$1;
#X obj 35 31 inlet;
#X obj 14 183 outlet;
#N canvas 0 22 450 300 @hv_obj 0;
#X obj 148 66 inlet;
#X obj 222 64 inlet;
#X obj 140 131 outlet;
#X obj 233 141 outlet;
#X restore 14 129 pd @hv_obj if \$1;
#X obj 107 104 > 0;
#N canvas 0 22 260 165 @hv_obj 0;
#X obj 60 35 inlet;
#X obj 120 35 inlet;
#X obj 60 95 outlet;
#X obj 120 95 outlet;
#X restore 134 155 pd @hv_obj __floor;
#N canvas 0 22 260 165 @hv_obj 0;
#X obj 60 35 inlet;
#X obj 120 35 inlet;
#X obj 60 95 outlet;
#X obj 120 95 outlet;
#X restore 14 155 pd @hv_obj __ceil;
#X text 11 205 @hv_arg \$1 k float 0 false;
#X obj 14 80 t a a;
#X connect 0 0 1 0;
#X connect 1 0 9 0;
#X connect 2 0 1 1;
#X connect 4 0 7 0;
#X connect 4 1 6 0;
#X connect 5 0 4 1;
#X connect 6 0 3 0;
#X connect 7 0 3 0;
#X connect 9 0 4 0;
#X connect 9 1 5 0;
