#N canvas 115 218 483 232 10;
#X obj 62 50 inlet;
#X obj 255 7 inlet;
#X obj 62 205 outlet;
#X text 112 206 @hv_arg \$1 period float 1000 false;
#N canvas 0 22 450 300 @hv_obj 0;
#X obj 158 79 inlet;
#X obj 173 183 outlet;
#X obj 275 180 outlet;
#X obj 116 183 outlet;
#X restore 62 76 pd @hv_obj __switchcase 0 stop;
#X msg 150 145 clear;
#X obj 62 175 t a a;
#N canvas 0 22 450 300 @hv_obj 0;
#X obj 133 43 inlet;
#X obj 197 44 inlet;
#X obj 179 240 outlet;
#X obj 272 47 inlet;
#X restore 150 175 pd @hv_obj __delay;
#X obj 62 122 bang;
#X obj 62 145 t a a;
#X text 264 162 minimum period is set to one sample;
#X obj 255 145 max 1;
#X obj 292 76 samplerate~;
#X obj 292 99 / 1000;
#X obj 255 123 *;
#X obj 255 76 f \$1;
#X obj 265 52 t a a;
#X obj 265 29 loadbang;
#X connect 0 0 4 0;
#X connect 1 0 15 0;
#X connect 4 0 5 0;
#X connect 4 1 5 0;
#X connect 4 2 8 0;
#X connect 5 0 7 0;
#X connect 6 0 2 0;
#X connect 6 1 7 0;
#X connect 7 0 6 0;
#X connect 8 0 9 0;
#X connect 9 0 6 0;
#X connect 9 1 5 0;
#X connect 11 0 7 2;
#X connect 12 0 13 0;
#X connect 13 0 14 1;
#X connect 14 0 11 0;
#X connect 15 0 14 0;
#X connect 16 0 15 0;
#X connect 16 1 12 0;
#X connect 17 0 16 0;
