#N canvas 1122 327 278 331 10;
#X obj 59 217 pack f f f;
#X obj 59 249 s __hv_noteout;
#X obj 59 46 inlet note;
#X obj 87 76 inlet vel;
#X obj 126 133 loadbang;
#X obj 116 163 f \$1;
#X obj 116 106 inlet channel;
#X obj 116 185 clip 0 16;
#X connect 0 0 1 0;
#X connect 2 0 0 0;
#X connect 3 0 0 1;
#X connect 4 0 5 0;
#X connect 5 0 7 0;
#X connect 6 0 5 0;
#X connect 7 0 0 2;
