#N canvas 1301 598 410 434 10;
#X text 18 13 data0/pitch data1/velocity channel;
#X obj 118 92 outlet;
#X obj 171 92 outlet;
#X obj 84 66 unpack f f f;
#X obj 23 212 outlet;
#X obj 119 118 loadbang;
#X obj 119 164 == 0;
#X obj 23 42 r __hv_notein;
#X obj 23 143 route \$1;
#X obj 119 142 i \$1;
#X obj 84 186 spigot;
#X msg 23 117 \$3 \$1;
#X connect 3 0 10 0;
#X connect 3 1 1 0;
#X connect 3 2 2 0;
#X connect 5 0 9 0;
#X connect 6 0 10 1;
#X connect 7 0 3 0;
#X connect 7 0 11 0;
#X connect 8 0 4 0;
#X connect 9 0 6 0;
#X connect 10 0 4 0;
#X connect 11 0 8 0;
