#N canvas 0 22 267 174 10;
#X obj 54 105 outlet;
#X obj 89 84 outlet;
#X obj 20 127 outlet;
#X obj 20 37 r __hv_notein;
#X obj 20 61 unpack f f f;
#X text 18 13 data0/pitch data1/velocity channel;
#X connect 3 0 4 0;
#X connect 4 0 2 0;
#X connect 4 1 0 0;
#X connect 4 2 1 0;
