#N canvas 650 23 284 370 10;
#X obj 33 178 *~;
#X obj 44 231 *~;
#X obj 48 154 *~;
#X text 74 153 x^2;
#X text 57 178 x^3;
#X text 68 231 x^5;
#X obj 18 276 +~;
#X obj 18 299 outlet~;
#X text 17 320 @hv_arg \$1 frequency float 440 false;
#X text 85 122 x;
#X obj 18 78 abs~;
#X obj 18 56 -~ 0.5;
#X text 67 98 [-0.25 \, +0.25];
#X obj 18 122 *~ 6.283185307179586;
#X obj 18 99 -~ 0.25;
#X obj 135 9 inlet phase;
#X obj 18 9 inlet -~>;
#X text 44 278 -5% to adjust for taylor expansion;
#X obj 44 255 *~ 0.007833333333333;
#X text 16 335 a cosine oscillator;
#N canvas 0 22 450 300 @hv_obj 0;
#X obj 185 86 inlet;
#X obj 277 90 inlet;
#X obj 182 150 outlet~;
#X restore 18 33 pd @hv_obj phasor \$1;
#X obj 33 202 *~ -0.166666666666667;
#X obj 18 254 +~;
#X connect 0 0 1 0;
#X connect 0 0 21 0;
#X connect 1 0 18 0;
#X connect 2 0 1 1;
#X connect 2 0 0 1;
#X connect 6 0 7 0;
#X connect 10 0 14 0;
#X connect 11 0 10 0;
#X connect 13 0 2 0;
#X connect 13 0 2 1;
#X connect 13 0 0 0;
#X connect 13 0 22 0;
#X connect 14 0 13 0;
#X connect 15 0 20 1;
#X connect 16 0 20 0;
#X connect 18 0 6 1;
#X connect 20 0 11 0;
#X connect 21 0 22 1;
#X connect 22 0 6 0;
