#N canvas 1122 327 232 295 10;
#X obj 52 233 s __hv_pgmout;
#X obj 52 201 pack f f;
#X obj 97 74 inlet channel;
#X obj 97 146 f \$1;
#X obj 97 168 clip 0 15;
#X obj 114 106 loadbang;
#X obj 52 40 inlet program;
#X connect 1 0 0 0;
#X connect 2 0 3 0;
#X connect 3 0 4 0;
#X connect 4 0 1 1;
#X connect 5 0 3 0;
#X connect 6 0 1 0;
