#N canvas 474 236 355 324 10;
#X obj 26 21 inlet;
#X obj 26 273 outlet;
#X obj 26 51 t f f;
#X msg 26 225 0;
#X obj 113 165 * 20;
#X obj 113 195 + 100;
#X obj 113 225 max 0;
#X obj 113 79 > 0;
#N canvas 0 22 260 165 @hv_obj 0;
#X obj 60 35 inlet;
#X obj 120 35 inlet;
#X obj 60 95 outlet;
#X obj 120 95 outlet;
#X restore 26 105 pd @hv_obj __if;
#N canvas 0 22 260 165 @hv_obj 0;
#X obj 60 35 inlet;
#X obj 60 95 outlet;
#X restore 113 135 pd @hv_obj __log10;
#X connect 0 0 2 0;
#X connect 2 0 8 0;
#X connect 2 1 7 0;
#X connect 3 0 1 0;
#X connect 4 0 5 0;
#X connect 5 0 6 0;
#X connect 6 0 1 0;
#X connect 7 0 8 1;
#X connect 8 0 3 0;
#X connect 8 1 9 0;
#X connect 9 0 4 0;
