#N canvas 192 130 288 304 10;
#X obj 24 23 inlet, f 6;
#X obj 136 23 inlet;
#X obj 83 272 outlet;
#N canvas 0 22 450 300 @hv_obj 0;
#X obj 145 62 inlet;
#X obj 150 127 outlet;
#X restore 24 115 pd @hv_obj system;
#X msg 24 85 currentTime;
#X obj 82 161 -;
#N canvas 0 22 450 300 @hv_obj 0;
#X obj 145 62 inlet;
#X obj 150 127 outlet;
#X restore 136 115 pd @hv_obj system;
#X msg 136 85 currentTime;
#X obj 83 247 /;
#X obj 136 53 t a a;
#N canvas 0 22 450 300 @hv_obj 0;
#X obj 145 62 inlet;
#X obj 150 127 outlet;
#X restore 163 177 pd @hv_obj system;
#X msg 163 147 samplerate;
#X obj 163 207 / 1000;
#X connect 0 0 4 0;
#X connect 1 0 9 0;
#X connect 3 0 5 1;
#X connect 4 0 3 0;
#X connect 5 0 8 0;
#X connect 6 0 5 0;
#X connect 7 0 6 0;
#X connect 8 0 2 0;
#X connect 9 0 7 0;
#X connect 9 1 11 0;
#X connect 10 0 12 0;
#X connect 11 0 10 0;
#X connect 12 0 8 1;
