#N canvas 830 72 440 622 10;
#X obj 96 11 inlet~ f;
#X obj 260 11 inlet q;
#X msg 361 189 1 \$1;
#X obj 361 212 /;
#X text 384 213 invq;
#X obj 260 147 + 2;
#X msg 260 168 2 \$1;
#X obj 260 189 /;
#X msg 260 212 2 \$1;
#X obj 260 234 -;
#X text 284 235 ampcorrect;
#X obj 144 103 samplerate~;
#X obj 112 143 /;
#X obj 97 166 *~;
#X obj 97 372 *~;
#X obj 112 403 sig~ 1;
#X obj 97 433 -~;
#X obj 136 566 outlet~;
#X obj 19 566 outlet~;
#X msg 112 123 6.28319 \$1;
#X obj 19 419 *~;
#X obj 19 455 *~;
#X obj 97 496 *~;
#X obj 224 482 *~;
#X obj 254 397 *~;
#X obj 239 437 -~;
#X obj 239 458 sqrt~;
#X text 277 457 sin;
#N canvas 0 23 450 300 @hv_obj 0;
#X obj 188 51 inlet~;
#X obj 135 50 inlet~;
#X obj 209 193 outlet~;
#X obj 290 50 inlet~;
#X obj 235 50 inlet~;
#X obj 137 192 outlet~;
#X obj 146 125 cpole~;
#X obj 235 72 *~ -1;
#X obj 291 72 *~ -1;
#X connect 0 0 6 1;
#X connect 1 0 6 0;
#X connect 3 0 8 0;
#X connect 4 0 7 0;
#X connect 6 0 5 0;
#X connect 6 1 2 0;
#X connect 7 0 6 2;
#X connect 8 0 6 3;
#X restore 19 543 pd @hv_obj __cpole~f;
#X text 125 431 -r = cf*qinv-1;
#X text 122 495 -coefr;
#X text 251 482 -coefi;
#X obj 260 53 f \$1;
#X obj 171 11 loadbang;
#N canvas 0 23 450 300 @hv_obj 0;
#X obj 131 90 inlet~;
#X obj 131 156 cos~;
#X obj 131 177 outlet~;
#X obj 131 126 /~ 6.28319;
#X connect 0 0 3 0;
#X connect 1 0 2 0;
#X connect 3 0 1 0;
#X restore 254 368 pd @hv_obj __cos~f;
#X obj 19 11 inlet~ in;
#X msg 260 119 0;
#X obj 361 235 t a;
#X obj 171 32 t a a;
#X obj 97 329 min~;
#X msg 231 119 -1;
#X text 125 372 oneminusr = cf*qinv;
#X obj 260 76 moses 1e-05;
#X text 333 90 > 0;
#X text 147 246 cf [1e-05 \, pi];
#X obj 97 247 max~ 1e-05;
#X connect 0 0 13 0;
#X connect 1 0 32 0;
#X connect 2 0 3 0;
#X connect 3 0 37 0;
#X connect 5 0 6 0;
#X connect 6 0 7 0;
#X connect 7 0 8 0;
#X connect 8 0 9 0;
#X connect 9 0 21 1;
#X connect 11 0 19 0;
#X connect 12 0 13 1;
#X connect 13 0 45 0;
#X connect 14 0 20 1;
#X connect 14 0 16 0;
#X connect 15 0 16 1;
#X connect 15 0 25 0;
#X connect 16 0 22 0;
#X connect 16 0 23 0;
#X connect 19 0 12 0;
#X connect 20 0 21 0;
#X connect 21 0 28 0;
#X connect 22 0 28 2;
#X connect 23 0 28 3;
#X connect 24 0 25 1;
#X connect 25 0 26 0;
#X connect 26 0 23 1;
#X connect 28 0 18 0;
#X connect 28 1 17 0;
#X connect 32 0 42 0;
#X connect 33 0 38 0;
#X connect 34 0 24 0;
#X connect 34 0 24 1;
#X connect 34 0 22 1;
#X connect 35 0 20 0;
#X connect 36 0 5 0;
#X connect 37 0 14 1;
#X connect 38 0 32 0;
#X connect 38 1 11 0;
#X connect 39 0 14 0;
#X connect 40 0 39 1;
#X connect 40 0 14 1;
#X connect 42 0 36 0;
#X connect 42 0 40 0;
#X connect 42 1 2 0;
#X connect 42 1 5 0;
#X connect 42 1 39 1;
#X connect 45 0 39 0;
#X connect 45 0 34 0;
