#N canvas 525 135 222 227 10;
#X obj 39 30 inlet;
#X obj 39 150 -;
#X obj 39 180 outlet;
#N canvas 0 22 450 300 @hv_obj 0;
#X obj 118 64 inlet;
#X obj 118 86 outlet;
#X connect 0 0 1 0;
#X restore 66 120 pd @hv_obj __floor;
#X obj 39 90 t a a;
#N canvas 0 22 450 300 @hv_obj 0;
#X obj 87 75 inlet;
#X obj 87 97 outlet;
#X connect 0 0 1 0;
#X restore 39 60 pd @hv_obj __cast_f;
#X connect 0 0 5 0;
#X connect 1 0 2 0;
#X connect 3 0 1 1;
#X connect 4 0 1 0;
#X connect 4 1 3 0;
#X connect 5 0 4 0;
