#N canvas 351 118 960 926 10;
#X obj 336 445 dac~ 1 2 3 4;
#X obj 213 350 *~;
#X obj 363 369 *~;
#X obj 404 371 *~;
#X obj 559 366 *~;
#X obj 336 291 r Ctrl2 @hv_param;
#X obj 471 296 r Ctrl3 @hv_param;
#X obj 617 292 r Ctrl4 @hv_param;
#X obj 412 239 osc~;
#X obj 354 143 loadbang;
#X msg 354 164 440;
#X obj 373 194 f;
#X obj 413 196 +;
#X obj 416 145 r Encoder @hv_param;
#X obj 413 169 * 20;
#X msg 548 143 1;
#X msg 589 144 -1;
#X floatatom 459 218 5 0 0 0 - - -, f 5;
#X text 594 119 turn encoder to set pitch;
#X text 603 268 ctrls set volume per channel;
#X obj 329 111 r EncSwitch @hv_param;
#X text 110 116 press encoder to reset osc pitch;
#X obj 125 291 r Ctrl1 @hv_param;
#X obj 128 321 * 0.8;
#X obj 333 316 * 0.8;
#X obj 472 323 * 0.8;
#X obj 606 328 * 0.8;
#X obj 100 485 r Gate1 @hv_param;
#X obj 142 513 t b b;
#X msg 174 543 1;
#X msg 130 543 0 500;
#X obj 227 381 *~;
#X obj 272 514 t b b;
#X msg 295 540 1;
#X msg 250 540 0 500;
#X obj 282 567 line;
#X obj 227 492 r Gate2 @hv_param;
#X obj 364 395 *~;
#X text 389 486 gate ins trigger env for outs 1-2;
#X obj 154 569 line;
#X connect 1 0 31 0;
#X connect 2 0 37 0;
#X connect 3 0 0 2;
#X connect 4 0 0 3;
#X connect 5 0 24 0;
#X connect 6 0 25 0;
#X connect 7 0 26 0;
#X connect 8 0 2 0;
#X connect 8 0 3 0;
#X connect 8 0 4 0;
#X connect 8 0 1 0;
#X connect 9 0 10 0;
#X connect 10 0 11 0;
#X connect 11 0 12 1;
#X connect 12 0 11 0;
#X connect 12 0 17 0;
#X connect 12 0 8 0;
#X connect 13 0 14 0;
#X connect 14 0 12 0;
#X connect 15 0 14 0;
#X connect 16 0 14 0;
#X connect 20 0 10 0;
#X connect 22 0 23 0;
#X connect 23 0 1 1;
#X connect 24 0 2 1;
#X connect 25 0 3 1;
#X connect 26 0 4 1;
#X connect 27 0 28 0;
#X connect 28 0 30 0;
#X connect 28 1 29 0;
#X connect 29 0 39 0;
#X connect 30 0 39 0;
#X connect 31 0 0 0;
#X connect 32 0 34 0;
#X connect 32 1 33 0;
#X connect 33 0 35 0;
#X connect 34 0 35 0;
#X connect 35 0 37 1;
#X connect 36 0 32 0;
#X connect 37 0 0 1;
#X connect 39 0 31 1;
