#N canvas 624 80 1066 837 10;
#X obj 226 56 hsl 128 15 0 1 0 0 empty empty Parameter_B -2 -8 0 10
-262144 -1 -1 7700 1;
#X obj 434 56 hsl 128 15 0 1 0 0 empty empty Parameter_C -2 -8 0 10
-262144 -1 -1 4900 1;
#X obj 644 51 hsl 128 15 0 1 0 0 empty empty Parameter_D -2 -8 0 10
-262144 -1 -1 11000 1;
#X obj 21 55 hsl 128 15 0 1 0 0 empty empty Parameter_A -2 -8 0 10
-262144 -1 -1 3800 1;
#X text 72 4 OWL Puredata Template;
#X obj 831 47 hsl 128 15 0 1 0 0 empty empty Parameter_E -2 -8 0 10
-262144 -1 -1 1400 1;
#X obj 826 114 + 0;
#X obj 512 771 dac~;
#X obj 326 568 phasor~;
#X obj 328 614 *~ 2;
#X obj 330 647 -~ 1;
#X obj 330 282 hsl 128 15 0 1000 0 0 empty empty empty -2 -8 0 10 -262144
-1 -1 1400 1;
#X obj 507 546 phasor~;
#X obj 509 592 *~ 2;
#X obj 511 625 -~ 1;
#X obj 644 599 phasor~;
#X obj 646 645 *~ 2;
#X obj 648 678 -~ 1;
#X obj 753 621 phasor~;
#X obj 755 667 *~ 2;
#X obj 757 700 -~ 1;
#X floatatom 428 526 5 0 0 0 - - -;
#X floatatom 579 569 5 0 0 0 - - -;
#X floatatom 699 572 5 0 0 0 - - -;
#X obj 510 510 +, f 4;
#X obj 617 532 +, f 4;
#X obj 733 528 +, f 4;
#X obj 732 296 vsl 15 128 -100 100 0 0 empty empty empty 0 -9 0 10
-262144 -1 -1 7700 1;
#X obj 563 445 t b f;
#X obj 647 463 t b f;
#X obj 728 481 t b f;
#X floatatom 278 440 5 0 0 0 - - -;
#X obj 757 295 vsl 15 128 -100 100 0 0 empty empty empty 0 -9 0 10
-262144 -1 -1 4900 1;
#X obj 783 294 vsl 15 128 -100 100 0 0 empty empty empty 0 -9 0 10
-262144 -1 -1 11000 1;
#X floatatom 381 400 5 0 0 0 - - -;
#X obj 460 379 +, f 4;
#X obj 516 319 t b f;
#X obj 597 266 hsl 64 15 -10 10 0 0 empty empty empty -2 -8 0 10 -262144
-1 -1 1885 1;
#X obj 532 274 / 1;
#X obj 662 226 loadbang;
#X msg 701 246 0;
#X obj 828 94 * 1000;
#X obj 662 142 - 100;
#X obj 655 112 * 200;
#X obj 430 123 - 100;
#X obj 221 124 - 100;
#X obj 223 103 * 200;
#X obj 430 103 * 200;
#X obj 18 102 * 20;
#X obj 17 123 - 10;
#X obj 508 735 *~ 0.75;
#X obj 28 76 r ChannelA @hv_param 0 1 0.5;
#X obj 441 77 r ChannelC @hv_param 0 1 0.5;
#X obj 650 72 r ChannelD @hv_param 0 1 0.5;
#X obj 837 68 r ChannelE @hv_param 0 1 0.5;
#X obj 236 77 r ChannelB @hv_param 0 1 0.5;
#X connect 0 0 46 0;
#X connect 1 0 47 0;
#X connect 2 0 43 0;
#X connect 3 0 48 0;
#X connect 5 0 41 0;
#X connect 6 0 11 0;
#X connect 8 0 9 0;
#X connect 9 0 10 0;
#X connect 10 0 50 0;
#X connect 11 0 8 0;
#X connect 11 0 31 0;
#X connect 11 0 35 0;
#X connect 12 0 13 0;
#X connect 13 0 14 0;
#X connect 14 0 50 0;
#X connect 15 0 16 0;
#X connect 16 0 17 0;
#X connect 17 0 50 0;
#X connect 18 0 19 0;
#X connect 19 0 20 0;
#X connect 20 0 50 0;
#X connect 24 0 12 0;
#X connect 24 0 21 0;
#X connect 25 0 15 0;
#X connect 25 0 22 0;
#X connect 26 0 18 0;
#X connect 26 0 23 0;
#X connect 27 0 28 0;
#X connect 28 0 24 0;
#X connect 28 1 24 1;
#X connect 29 0 25 0;
#X connect 29 1 25 1;
#X connect 30 0 26 0;
#X connect 30 1 26 1;
#X connect 32 0 29 0;
#X connect 33 0 30 0;
#X connect 35 0 34 0;
#X connect 35 0 24 0;
#X connect 35 0 25 0;
#X connect 35 0 26 0;
#X connect 36 0 35 0;
#X connect 36 1 35 1;
#X connect 37 0 38 0;
#X connect 38 0 36 0;
#X connect 39 0 40 0;
#X connect 40 0 27 0;
#X connect 40 0 32 0;
#X connect 40 0 33 0;
#X connect 40 0 37 0;
#X connect 41 0 6 0;
#X connect 42 0 33 0;
#X connect 43 0 42 0;
#X connect 44 0 32 0;
#X connect 45 0 27 0;
#X connect 46 0 45 0;
#X connect 47 0 44 0;
#X connect 48 0 49 0;
#X connect 49 0 37 0;
#X connect 50 0 7 0;
#X connect 50 0 7 1;
#X connect 51 0 48 0;
#X connect 52 0 47 0;
#X connect 53 0 43 0;
#X connect 54 0 41 0;
#X connect 55 0 46 0;
