#N canvas 342 171 276 327 10;
#X obj 148 141 outlet;
#X obj 91 74 unpack f f;
#X text 165 74 bend channel;
#X obj 31 40 r __hv_bendin;
#X obj 31 261 outlet;
#X obj 124 167 loadbang;
#X obj 124 213 == 0;
#X obj 31 173 route \$1;
#X obj 124 191 i \$1;
#X msg 31 147 \$2 \$1;
#X obj 91 235 spigot;
#X msg 91 208 \$1;
#X obj 148 108 + 1;
#X connect 1 1 12 0;
#X connect 3 0 1 0;
#X connect 3 0 9 0;
#X connect 5 0 8 0;
#X connect 6 0 10 1;
#X connect 7 0 4 0;
#X connect 7 1 11 0;
#X connect 8 0 6 0;
#X connect 9 0 7 0;
#X connect 10 0 4 0;
#X connect 11 0 10 0;
#X connect 12 0 0 0;
