#N canvas 742 22 339 614 10;
#X obj 18 21 inlet~;
#X obj 108 21 inlet fc;
#X obj 18 538 outlet~;
#X obj 108 179 /;
#X obj 186 128 samplerate~;
#X obj 167 77 loadbang;
#X obj 108 123 f \$1;
#N canvas 0 22 324 130 @hv_obj 0;
#X obj 75 4 inlet;
#X obj 229 4 inlet;
#X obj 113 4 inlet;
#X obj 152 4 inlet;
#X obj 30 37 outlet~;
#X obj 192 4 inlet;
#X obj 30 4 inlet~, f 19;
#X restore 18 513 pd @hv_obj biquad;
#X obj 108 153 * 6.28319;
#X text 13 584 @hv_arg \$2 q float 1 false;
#X text 13 566 @hv_arg \$1 fc float 22050 false;
#X obj 176 21 inlet q;
#X obj 206 153 f \$2;
#X obj 167 100 t a a a;
#X obj 108 230 /;
#X obj 147 310 * -1;
#X obj 147 332 + 1;
#X text 70 179 omega;
#X text 46 233 oneminusr;
#X text 133 332 r;
#X obj 193 310 cos;
#X obj 193 334 * 2;
#X obj 147 378 *;
#X text 108 378 coef1;
#X obj 176 48 t b a, f 9;
#X text 154 426 coef2;
#X obj 192 426 * -1;
#X obj 129 488 * -1;
#X obj 106 465 * -1;
#X obj 40 465 * 2;
#X obj 80 444 *;
#X obj 108 204 t a a a, f 29;
#X obj 192 392 pow 2;
#X obj 65 465 +;
#X obj 40 488 *;
#X obj 108 285 t a a a;
#X text 64 487 gain;
#X text 149 132 fc;
#X text 237 152 q;
#X obj 206 176 max 0.001;
#X obj 108 258 min 1;
#X obj 128 354 t a a a;
#X connect 0 0 7 0;
#X connect 1 0 6 0;
#X connect 3 0 31 0;
#X connect 4 0 3 1;
#X connect 5 0 13 0;
#X connect 6 0 8 0;
#X connect 7 0 2 0;
#X connect 8 0 3 0;
#X connect 11 0 24 0;
#X connect 12 0 39 0;
#X connect 13 0 6 0;
#X connect 13 1 4 0;
#X connect 13 2 12 0;
#X connect 14 0 40 0;
#X connect 15 0 16 0;
#X connect 16 0 41 0;
#X connect 20 0 21 0;
#X connect 21 0 22 1;
#X connect 22 0 28 0;
#X connect 24 0 6 0;
#X connect 24 1 12 0;
#X connect 26 0 27 0;
#X connect 27 0 7 5;
#X connect 28 0 7 4;
#X connect 29 0 34 0;
#X connect 30 0 33 1;
#X connect 31 0 14 0;
#X connect 31 1 20 0;
#X connect 31 2 30 1;
#X connect 32 0 26 0;
#X connect 33 0 34 1;
#X connect 34 0 7 1;
#X connect 35 0 29 0;
#X connect 35 1 33 0;
#X connect 35 2 15 0;
#X connect 39 0 14 1;
#X connect 40 0 35 0;
#X connect 41 0 30 0;
#X connect 41 1 22 0;
#X connect 41 2 32 0;
