#N canvas 877 436 234 342 10;
#N canvas 0 22 260 165 @hv_obj 0;
#X obj 60 35 inlet;
#X obj 120 35 inlet;
#X obj 60 95 outlet;
#X obj 120 95 outlet;
#X restore 72 169 pd @hv_obj if;
#X obj 130 199 t f f;
#X obj 22 274 outlet;
#X obj 22 48 route bang set;
#X obj 130 139 != \$1;
#X text 21 305 @hv_arg \$1 value float 0 false;
#X obj 22 19 inlet;
#X obj 103 76 t f f;
#X obj 22 244 f \$1;
#X connect 0 1 1 0;
#X connect 1 0 8 0;
#X connect 1 1 4 1;
#X connect 3 0 8 0;
#X connect 3 1 4 1;
#X connect 3 1 8 1;
#X connect 3 2 7 0;
#X connect 4 0 0 1;
#X connect 6 0 3 0;
#X connect 7 0 0 0;
#X connect 7 1 4 0;
#X connect 8 0 2 0;
