#N canvas 881 247 766 648 12;
#X obj 14 591 outlet;
#X obj 229 591 outlet;
#X obj 551 591 outlet;
#X obj 33 60 loadbang;
#X text 19 24 data1/value data0/cc# channel;
#X obj 438 56 r __hv_ctlin;
#X obj 33 93 t a a;
#X obj 33 118 i \$1;
#X obj 120 118 i \$2;
#X obj 438 81 unpack f f f;
#X obj 519 117 + 1;
#X obj 519 201 max 1;
#X obj 393 225 ==;
#X obj 33 143 t f f;
#X obj 33 168 == 0;
#X obj 14 258 spigot;
#X obj 70 258 spigot;
#X obj 354 294 spigot;
#X text 120 259 0 args case;
#X obj 416 436 spigot 1, f 11;
#X obj 31 414 spigot 1;
#X obj 33 371 == 0;
#X text 507 441 this should close if there is 2 args set, f 13;
#X text 178 69 the special case when first argument is 0 is buggy at
the moment, f 25;
#X obj 31 543 spigot 1;
#X obj 416 483 spigot 1;
#X obj 551 303 spigot;
#X obj 120 143 t f f;
#X obj 590 270 != 0;
#X obj 519 269 t f f;
#X obj 468 221 t a a;
#X obj 469 460 == 0;
#X obj 84 501 ==;
#X text 607 305 2 args case;
#X obj 519 338 t f f;
#X obj 551 366 spigot;
#X text 605 365 0 arg case;
#X text 420 509 1 arg case;
#X obj 416 402 f;
#X obj 590 337 t a;
#X text 98 536 this will keep open unless there is a second arg and
it doesn't match, f 15;
#X text 102 409 this will close if there is 0 arg set, f 11;
#X obj 393 255 t f b f;
#X obj 33 193 t f f f f;
#X connect 3 0 6 0;
#X connect 5 0 9 0;
#X connect 6 0 7 0;
#X connect 6 1 8 0;
#X connect 7 0 13 0;
#X connect 8 0 27 0;
#X connect 9 0 15 0;
#X connect 9 0 17 0;
#X connect 9 1 16 0;
#X connect 9 1 12 0;
#X connect 9 2 10 0;
#X connect 10 0 11 0;
#X connect 11 0 29 0;
#X connect 12 0 42 0;
#X connect 13 0 14 0;
#X connect 13 1 12 1;
#X connect 14 0 43 0;
#X connect 15 0 0 0;
#X connect 16 0 1 0;
#X connect 17 0 20 0;
#X connect 19 0 25 0;
#X connect 20 0 24 0;
#X connect 21 0 20 1;
#X connect 24 0 0 0;
#X connect 25 0 1 0;
#X connect 26 0 32 0;
#X connect 27 0 32 1;
#X connect 27 1 30 0;
#X connect 28 0 26 1;
#X connect 29 0 34 0;
#X connect 29 1 26 0;
#X connect 30 0 31 0;
#X connect 30 1 28 0;
#X connect 31 0 25 1;
#X connect 32 0 24 1;
#X connect 34 0 38 1;
#X connect 34 1 35 0;
#X connect 35 0 2 0;
#X connect 38 0 19 0;
#X connect 39 0 35 1;
#X connect 42 0 17 1;
#X connect 42 1 38 0;
#X connect 42 2 19 1;
#X connect 43 0 21 0;
#X connect 43 1 15 1;
#X connect 43 2 16 1;
#X connect 43 3 39 0;
