#N canvas 561 23 370 282 10;
#X obj 164 237 outlet~;
#X obj 24 237 outlet~;
#X obj 24 24 inlet~ a;
#X obj 106 24 inlet~ b;
#X obj 194 24 inlet~ c;
#X obj 277 24 inlet~ d;
#N canvas 0 22 450 300 @hv_obj 0;
#X obj 175 149 outlet~;
#X obj 173 75 inlet~;
#X restore 24 177 pd @hv_obj __del1~f e;
#N canvas 0 22 450 300 @hv_obj 0;
#X obj 175 149 outlet~;
#X obj 173 75 inlet~;
#X restore 164 177 pd @hv_obj __del1~f f;
#X obj 106 107 *~;
#X obj 39 147 -~;
#X obj 39 107 *~;
#X obj 24 207 -~;
#X obj 262 105 *~;
#X obj 179 107 *~;
#X obj 164 207 -~;
#X obj 179 147 +~;
#X connect 2 0 6 0;
#X connect 2 0 10 0;
#X connect 2 0 12 0;
#X connect 3 0 7 0;
#X connect 3 0 8 0;
#X connect 3 0 13 0;
#X connect 4 0 10 1;
#X connect 4 0 13 1;
#X connect 5 0 8 1;
#X connect 5 0 12 1;
#X connect 6 0 11 0;
#X connect 7 0 14 0;
#X connect 8 0 9 1;
#X connect 9 0 11 1;
#X connect 10 0 9 0;
#X connect 11 0 1 0;
#X connect 12 0 15 1;
#X connect 13 0 15 0;
#X connect 14 0 0 0;
#X connect 15 0 14 1;
