#N canvas 0 183 339 384 10;
#X msg 116 264 10;
#X obj 116 294 pow;
#X obj 116 174 - 100;
#X obj 29 30 inlet;
#X obj 29 342 outlet;
#X obj 29 60 t f f;
#X obj 116 88 > 0;
#X obj 116 144 min 485;
#X msg 29 294 0;
#N canvas 0 22 260 165 @hv_obj 0;
#X obj 60 35 inlet;
#X obj 120 35 inlet;
#X obj 60 95 outlet;
#X obj 120 95 outlet;
#X restore 29 114 pd @hv_obj __if;
#X obj 116 204 / 20;
#X obj 116 234 t a a;
#X connect 0 0 1 0;
#X connect 1 0 4 0;
#X connect 2 0 10 0;
#X connect 3 0 5 0;
#X connect 5 0 9 0;
#X connect 5 1 6 0;
#X connect 6 0 9 1;
#X connect 7 0 2 0;
#X connect 8 0 4 0;
#X connect 9 0 8 0;
#X connect 9 1 7 0;
#X connect 10 0 11 0;
#X connect 11 0 0 0;
#X connect 11 1 1 1;
