#N canvas 0 149 210 157 10;
#X text 11 119 @hv_arg \$1 k float 0 false;
#N canvas 0 22 183 125 @hv_obj 0;
#X obj 78 24 inlet;
#X obj 19 66 outlet;
#X obj 19 24 inlet;
#X restore 13 60 pd @hv_obj __var \$1;
#X obj 13 90 outlet;
#X obj 13 20 inlet -->;
#X obj 124 20 inlet -->;
#X connect 1 0 2 0;
#X connect 3 0 1 0;
#X connect 4 0 1 1;
