#N canvas 0 37 423 374 10;
#X obj 21 19 inlet;
#X obj 21 269 outlet;
#X obj 108 139 / 440;
#X obj 108 199 * 12;
#X obj 108 229 + 69;
#X text 19 299 // Note: Pd's internal implementation of [ftom] uses
doubles instead of floats so there will be slight rounding discrepencies.
;
#X obj 21 49 t f f;
#X obj 108 79 > 0;
#X msg 21 229 -1500;
#N canvas 0 22 450 300 @hv_obj 0;
#X obj 43 62 inlet;
#X obj 43 84 outlet;
#X obj 103 62 inlet;
#X obj 103 84 outlet;
#X connect 0 0 1 0;
#X connect 2 0 3 0;
#X restore 21 109 pd @hv_obj __if;
#N canvas 0 22 450 300 @hv_obj 0;
#X obj 65 52 inlet;
#X obj 65 152 outlet;
#X obj 65 74 log;
#X obj 65 126 /;
#X obj 114 124 log;
#X obj 113 69 loadbang;
#X msg 113 91 2;
#X connect 0 0 2 0;
#X connect 2 0 3 0;
#X connect 3 0 1 0;
#X connect 4 0 3 1;
#X connect 5 0 6 0;
#X connect 6 0 4 0;
#X restore 108 169 pd @hv_obj __log2;
#X connect 0 0 6 0;
#X connect 2 0 10 0;
#X connect 3 0 4 0;
#X connect 4 0 1 0;
#X connect 6 0 9 0;
#X connect 6 1 7 0;
#X connect 7 0 9 1;
#X connect 8 0 1 0;
#X connect 9 0 8 0;
#X connect 9 1 2 0;
#X connect 10 0 3 0;
