#N canvas 300 23 663 743 10;
#X obj 118 709 outlet;
#X obj 22 17 inlet target;
#X obj 452 120 samplerate~;
#X obj 437 317 / 1000;
#X obj 437 293 *;
#X obj 118 409 metro 20;
#X obj 464 341 *;
#X obj 465 363 / 1000;
#X obj 118 449 f;
#X obj 148 449 -;
#X msg 118 378 1;
#X obj 118 509 sel 0 1;
#X msg 174 569 0;
#X obj 118 479 <= 0;
#X obj 159 649 +;
#X obj 371 287 / 20;
#X obj 270 457 /;
#X obj 371 263 t f f;
#X obj 190 276 t f f;
#X obj 137 539 t b b;
#X text 482 316 num samples to target;
#X text 295 460 slope;
#X obj 214 709 +;
#X text 469 397 next output value;
#X obj 452 142 t a a;
#X obj 22 47 route stop set;
#X msg 22 232 0;
#X obj 165 202 inlet ramp;
#X obj 373 17 inlet grain;
#X text 284 691 @hv_arg \$1 initial_value float 0 false;
#X text 284 707 @hv_arg \$2 grain float 20 false;
#X obj 150 232 f 0;
#X msg 103 93 0;
#X obj 373 120 f \$2;
#X obj 373 70 max 0;
#X obj 373 143 sel 0;
#X msg 373 167 20;
#X obj 432 397 f \$1;
#X obj 137 569 f;
#X obj 118 649 f \$1;
#X obj 62 187 t f b;
#X obj 190 306 -;
#X obj 174 597 t a a;
#X obj 174 621 t a a;
#X obj 195 458 t a a b;
#X obj 373 193 t a a a;
#X obj 118 679 t a a;
#X obj 413 96 t a a a;
#X obj 137 114 unpack f f;
#X obj 103 70 t b b a b;
#X obj 413 71 loadbang;
#X connect 1 0 25 0;
#X connect 2 0 24 0;
#X connect 3 0 8 1;
#X connect 4 0 3 0;
#X connect 5 0 8 0;
#X connect 6 0 7 0;
#X connect 7 0 9 1;
#X connect 8 0 9 0;
#X connect 8 0 13 0;
#X connect 9 0 8 1;
#X connect 10 0 5 0;
#X connect 11 0 39 0;
#X connect 11 1 19 0;
#X connect 12 0 42 0;
#X connect 13 0 11 0;
#X connect 14 0 39 1;
#X connect 15 0 16 1;
#X connect 16 0 43 0;
#X connect 17 0 15 0;
#X connect 17 1 4 0;
#X connect 18 0 41 0;
#X connect 18 1 38 1;
#X connect 19 0 38 0;
#X connect 19 1 12 0;
#X connect 22 0 37 0;
#X connect 24 0 4 1;
#X connect 24 1 6 1;
#X connect 25 0 26 0;
#X connect 25 1 40 0;
#X connect 25 2 49 0;
#X connect 26 0 5 0;
#X connect 27 0 31 1;
#X connect 28 0 34 0;
#X connect 31 0 17 0;
#X connect 32 0 31 1;
#X connect 33 0 35 0;
#X connect 34 0 33 0;
#X connect 35 0 36 0;
#X connect 35 1 45 0;
#X connect 36 0 45 0;
#X connect 37 0 41 1;
#X connect 38 0 39 0;
#X connect 39 0 14 0;
#X connect 39 0 46 0;
#X connect 40 0 44 0;
#X connect 40 1 26 0;
#X connect 41 0 16 0;
#X connect 42 0 43 0;
#X connect 42 1 5 0;
#X connect 43 0 14 1;
#X connect 43 1 22 1;
#X connect 44 0 39 1;
#X connect 44 1 22 0;
#X connect 44 2 12 0;
#X connect 45 0 5 1;
#X connect 45 1 15 1;
#X connect 45 2 6 0;
#X connect 46 0 0 0;
#X connect 46 1 22 0;
#X connect 47 0 33 0;
#X connect 47 1 37 0;
#X connect 47 2 2 0;
#X connect 48 0 18 0;
#X connect 48 1 17 0;
#X connect 49 0 32 0;
#X connect 49 1 10 0;
#X connect 49 2 48 0;
#X connect 49 3 31 0;
#X connect 50 0 47 0;
