#N canvas 659 183 231 379 10;
#X text 21 347 @hv_arg \$1 fc float 22050 false;
#X obj 62 70 loadbang;
#X obj 23 22 inlet~;
#X obj 38 125 f \$1;
#N canvas 870 68 227 202 hz2rad 0;
#X obj 88 50 samplerate~;
#X obj 28 148 *;
#X obj 28 178 outlet;
#X obj 28 20 inlet fc;
#X obj 88 20 inlet init;
#X obj 88 108 /, f 5;
#X msg 88 76 6.28319 \$1;
#X connect 0 0 6 0;
#X connect 1 0 2 0;
#X connect 3 0 1 0;
#X connect 4 0 0 0;
#X connect 5 0 1 1;
#X connect 6 0 5 0;
#X restore 38 150 pd hz2rad;
#X obj 23 227 *~;
#X obj 38 47 inlet;
#X obj 140 274 sig~;
#X obj 23 325 outlet~;
#X obj 38 176 clip 0 1;
#X obj 38 202 t a a;
#X obj 62 95 t a a;
#N canvas 0 22 450 300 @hv_obj 0;
#X obj 130 85 inlet~;
#X obj 81 86 inlet~;
#X obj 103 163 outlet~;
#X restore 23 298 pd @hv_obj __rpole~f;
#X obj 140 250 - 1;
#X connect 1 0 11 0;
#X connect 2 0 5 0;
#X connect 3 0 4 0;
#X connect 4 0 9 0;
#X connect 5 0 12 0;
#X connect 6 0 3 0;
#X connect 7 0 12 1;
#X connect 9 0 10 0;
#X connect 10 0 5 1;
#X connect 10 1 13 0;
#X connect 11 0 3 0;
#X connect 11 1 4 1;
#X connect 12 0 8 0;
#X connect 13 0 7 0;
