#N canvas 732 230 504 438 10;
#X obj 37 34 inlet pitch;
#X obj 155 31 inlet velocity;
#X obj 325 31 inlet duration;
#X msg 102 342 0;
#X obj 257 31 loadbang;
#X obj 325 143 f \$2;
#X obj 325 165 max 0;
#X obj 37 250 pipe;
#X obj 141 373 outlet velocity;
#X obj 37 373 outlet pitch;
#X obj 37 190 spigot 0;
#X obj 155 99 f \$1;
#X obj 141 314 f;
#X obj 182 147 != 0;
#X text 209 260 @hv_arg \$1 velocity float 0 false;
#X text 209 281 @hv_arg \$2 duration float 0 false;
#X obj 257 53 t a a;
#X obj 155 123 t a a;
#X obj 37 214 t a a;
#X obj 37 293 t a a;
#X obj 114 283 t a b;
#X connect 0 0 10 0;
#X connect 1 0 11 0;
#X connect 2 0 5 0;
#X connect 3 0 8 0;
#X connect 4 0 16 0;
#X connect 5 0 6 0;
#X connect 6 0 7 1;
#X connect 7 0 19 0;
#X connect 10 0 18 0;
#X connect 11 0 17 0;
#X connect 12 0 8 0;
#X connect 13 0 10 1;
#X connect 16 0 11 0;
#X connect 16 1 5 0;
#X connect 17 0 12 1;
#X connect 17 1 13 0;
#X connect 18 0 7 0;
#X connect 18 1 20 0;
#X connect 19 0 9 0;
#X connect 19 1 3 0;
#X connect 20 0 9 0;
#X connect 20 1 12 0;
