#N canvas 814 376 208 199 10;
#X obj 77 126 outlet;
#X obj 20 148 outlet;
#X obj 20 37 r __hv_midiin;
#X text 18 13 data port;
#X obj 20 61 unpack f f;
#X obj 77 93 + 1;
#X connect 2 0 4 0;
#X connect 4 0 1 0;
#X connect 4 1 5 0;
#X connect 5 0 0 0;
