#N canvas 650 232 278 331 10;
#X obj 59 46 inlet data;
#X obj 104 76 inlet port;
#X obj 59 217 pack f f;
#X obj 59 249 s __hv_midiout @hv_param;
#X obj 104 153 f \$1;
#X obj 104 175 clip 0 15;
#X obj 121 113 loadbang;
#X connect 0 0 2 0;
#X connect 1 0 4 0;
#X connect 2 0 3 0;
#X connect 4 0 5 0;
#X connect 5 0 2 1;
#X connect 6 0 4 0;
