#N canvas 1026 489 417 247 10;
#X obj 56 62 inlet data;
#X obj 140 63 inlet port;
#X obj 56 190 s __hv_midiout @hv_param;
#X obj 140 161 s __hv_midioutport @hv_param;
#X text 33 28 data packed in message;
#X obj 152 95 loadbang;
#X obj 140 130 f \$1;
#X text 223 66 port is on separate Heavy send;
#X connect 0 0 2 0;
#X connect 1 0 6 0;
#X connect 5 0 6 0;
#X connect 6 0 3 0;
