#N canvas 623 160 245 197 10;
#X obj 15 12 inlet;
#X obj 129 12 inlet;
#X obj 15 122 outlet;
#X obj 102 122 outlet;
#X obj 102 63 >= \$1;
#X text 13 162 @hv_arg \$1 threshold float 0 false;
#X obj 15 35 t a a;
#N canvas 0 22 260 165 @hv_obj 0;
#X obj 60 35 inlet;
#X obj 120 35 inlet;
#X obj 60 95 outlet;
#X obj 120 95 outlet;
#X restore 15 92 pd @hv_obj __if;
#X connect 0 0 6 0;
#X connect 1 0 4 1;
#X connect 4 0 7 1;
#X connect 6 0 7 0;
#X connect 6 1 4 0;
#X connect 7 0 2 0;
#X connect 7 1 3 0;
