#N canvas 655 41 342 290 10;
#X obj 23 10 loadbang;
#X obj 23 34 random 8.38861e+06;
#N canvas 0 22 450 300 @hv_obj 0;
#X obj 157 180 outlet~;
#X restore 128 131 pd @hv_obj __var_k~i 16807;
#N canvas 0 22 450 300 @hv_obj 0;
#X obj 195 79 inlet~;
#X obj 198 143 outlet~;
#X restore 23 200 pd @hv_obj __cast~if;
#N canvas 0 22 450 300 @hv_obj 0;
#X obj 191 59 inlet~;
#X obj 129 56 inlet~;
#X obj 161 143 outlet~;
#X restore 23 244 pd @hv_obj __mul~f;
#N canvas 0 22 450 300 @hv_obj 0;
#X obj 163 139 outlet~;
#X restore 128 221 pd @hv_obj __var_k~f 4.65661e-10;
#X obj 23 268 outlet~ ~f>;
#N canvas 0 22 450 300 @hv_obj 0;
#X obj 157 180 outlet~;
#X obj 217 124 inlet~;
#X obj 162 124 inlet~;
#X restore 23 154 pd @hv_obj __mul~i;
#X msg 23 83 \$1 1;
#N canvas 0 22 450 300 @hv_obj 0;
#X obj 162 124 inlet;
#X obj 157 180 outlet~;
#X restore 23 106 pd @hv_obj var 0 0 0 x;
#N canvas 0 22 450 300 @hv_obj 0;
#X obj 170 106 inlet~;
#X restore 35 177 pd @hv_obj vario x;
#X obj 36 57 inlet;
#X text 78 56 set state;
#X connect 0 0 1 0;
#X connect 1 0 8 0;
#X connect 2 0 7 1;
#X connect 3 0 4 0;
#X connect 4 0 6 0;
#X connect 5 0 4 1;
#X connect 7 0 3 0;
#X connect 7 0 10 0;
#X connect 8 0 9 0;
#X connect 9 0 7 0;
#X connect 11 0 8 0;
