#N canvas 692 314 379 296 10;
#X text 18 13 data0/pitch data1/velocity channel;
#X obj 140 69 unpack f f f;
#X obj 23 39 loadbang;
#X obj 23 67 i \$1;
#X obj 203 212 spigot;
#X obj 22 181 spigot;
#X obj 87 181 spigot;
#X obj 209 100 + 1;
#X obj 140 214 spigot;
#X obj 23 99 == 0;
#X obj 209 147 ==;
#X obj 209 181 t f f;
#X obj 23 124 t f f;
#X obj 22 250 outlet;
#X obj 140 247 outlet;
#X obj 301 250 outlet;
#X obj 140 38 r __hv_notein;
#X obj 301 219 max 1;
#X connect 1 0 8 0;
#X connect 1 0 5 0;
#X connect 1 1 6 0;
#X connect 1 1 4 0;
#X connect 1 2 7 0;
#X connect 2 0 3 0;
#X connect 3 0 9 0;
#X connect 3 0 10 1;
#X connect 4 0 14 0;
#X connect 5 0 13 0;
#X connect 6 0 14 0;
#X connect 7 0 10 0;
#X connect 7 0 17 0;
#X connect 8 0 13 0;
#X connect 9 0 12 0;
#X connect 10 0 11 0;
#X connect 11 0 8 1;
#X connect 11 1 4 1;
#X connect 12 0 5 1;
#X connect 12 1 6 1;
#X connect 16 0 1 0;
#X connect 17 0 15 0;
