#N canvas 717 144 384 316 10;
#X text 18 13 data0/pitch data1/velocity channel;
#X obj 241 252 outlet;
#X obj 285 252 outlet;
#X obj 216 129 unpack f f f;
#X obj 30 252 outlet;
#X obj 147 129 loadbang;
#X obj 30 107 route \$1;
#X obj 30 129 route \$2;
#X obj 110 176 == 0;
#X obj 182 175 == 0;
#X msg 30 86 \$2 \$3 \$1;
#X obj 182 153 i \$1;
#X obj 110 154 i \$2;
#X msg 147 176 \$3;
#X msg 75 176 \$2;
#X obj 241 227 spigot;
#X obj 75 197 spigot;
#X obj 147 197 spigot;
#X obj 196 227 spigot;
#X obj 30 54 r __hv_notein;
#X obj 285 190 + 1;
#X connect 3 1 18 0;
#X connect 3 2 15 0;
#X connect 3 2 20 0;
#X connect 5 0 11 0;
#X connect 5 0 12 0;
#X connect 6 0 7 0;
#X connect 6 1 13 0;
#X connect 7 0 4 0;
#X connect 7 1 14 0;
#X connect 8 0 16 1;
#X connect 9 0 17 1;
#X connect 9 0 18 1;
#X connect 10 0 6 0;
#X connect 11 0 9 0;
#X connect 11 0 15 1;
#X connect 12 0 8 0;
#X connect 13 0 17 0;
#X connect 14 0 16 0;
#X connect 15 0 1 0;
#X connect 16 0 4 0;
#X connect 17 0 4 0;
#X connect 18 0 1 0;
#X connect 19 0 3 0;
#X connect 19 0 10 0;
#X connect 20 0 2 0;
