#N canvas 632 201 288 308 10;
#X obj 148 142 outlet;
#X obj 91 74 unpack f f;
#X text 165 74 pgm channel;
#X obj 31 40 r __hv_pgmin;
#X obj 31 262 outlet;
#X obj 126 168 loadbang;
#X obj 126 214 == 0;
#X obj 31 176 route \$1;
#X obj 126 192 i \$1;
#X msg 31 150 \$2 \$1;
#X obj 91 236 spigot;
#X msg 91 210 \$1;
#X obj 148 108 + 1;
#X connect 1 1 12 0;
#X connect 3 0 1 0;
#X connect 3 0 9 0;
#X connect 5 0 8 0;
#X connect 6 0 10 1;
#X connect 7 0 4 0;
#X connect 7 1 11 0;
#X connect 8 0 6 0;
#X connect 9 0 7 0;
#X connect 10 0 4 0;
#X connect 11 0 10 0;
#X connect 12 0 0 0;
