#N canvas 638 45 254 136 10;
#X obj 25 69 outlet~;
#X obj 142 14 inlet phase;
#N canvas 0 22 450 300 @hv_obj 0;
#X obj 130 77 inlet;
#X obj 55 136 outlet~;
#X obj 55 75 inlet;
#X restore 25 41 pd @hv_obj phasor \$1;
#X text 23 91 @hv_arg \$1 frequency float 0 false;
#X obj 25 15 inlet -~>;
#X connect 1 0 2 1;
#X connect 2 0 0 0;
#X connect 4 0 2 0;
