#N canvas 1225 622 278 331 10;
#X obj 59 232 pack f f f;
#X obj 126 133 loadbang;
#X obj 116 163 f \$1;
#X obj 116 106 inlet channel;
#X obj 116 185 - 1;
#X obj 116 208 max;
#X obj 59 264 s __hv_polytouchout @hv_param;
#X obj 59 46 inlet touch;
#X obj 87 76 inlet note;
#X connect 0 0 6 0;
#X connect 1 0 2 0;
#X connect 2 0 4 0;
#X connect 3 0 2 0;
#X connect 4 0 5 0;
#X connect 5 0 0 2;
#X connect 7 0 0 0;
#X connect 8 0 0 1;
