#N canvas 692 314 379 296 10;
#X obj 140 69 unpack f f f;
#X obj 23 39 loadbang;
#X obj 23 67 i \$1;
#X obj 203 212 spigot;
#X obj 22 181 spigot;
#X obj 87 181 spigot;
#X obj 209 100 + 1;
#X obj 140 214 spigot;
#X obj 23 99 == 0;
#X obj 209 147 ==;
#X obj 209 181 t f f;
#X obj 23 124 t f f;
#X obj 22 250 outlet;
#X obj 140 247 outlet;
#X obj 301 250 outlet;
#X obj 301 219 max 1;
#X obj 140 38 r __hv_polytouchin;
#X text 18 13 data0/note data1/pressure channel;
#X connect 0 0 7 0;
#X connect 0 0 4 0;
#X connect 0 1 5 0;
#X connect 0 1 3 0;
#X connect 0 2 6 0;
#X connect 1 0 2 0;
#X connect 2 0 8 0;
#X connect 2 0 9 1;
#X connect 3 0 13 0;
#X connect 4 0 12 0;
#X connect 5 0 13 0;
#X connect 6 0 9 0;
#X connect 6 0 15 0;
#X connect 7 0 12 0;
#X connect 8 0 11 0;
#X connect 9 0 10 0;
#X connect 10 0 7 1;
#X connect 10 1 3 1;
#X connect 11 0 4 1;
#X connect 11 1 5 1;
#X connect 15 0 14 0;
#X connect 16 0 0 0;
