#N canvas 585 151 215 219 10;
#X obj 13 10 inlet;
#X obj 34 105 inlet;
#X obj 13 172 outlet;
#X obj 13 128 * \$1;
#N canvas 0 22 450 300 @hv_obj 0;
#X obj 223 53 inlet;
#X obj 241 144 outlet;
#X restore 13 150 pd @hv_obj floor;
#X text 12 192 @hv_arg \$1 range float 2 false;
#N canvas 636 94 450 300 @hv_obj 0;
#X obj 37 37 inlet;
#X obj 190 49 inlet;
#X obj 155 131 outlet;
#X restore 13 83 pd @hv_obj random;
#N canvas 0 22 450 300 @hv_obj 0;
#X obj 178 47 inlet;
#X obj 165 128 outlet;
#X restore 13 57 pd @hv_obj slice 1 1;
#N canvas 0 22 450 300 @hv_obj 0;
#X obj 169 24 inlet;
#X obj 221 83 outlet;
#X obj 159 83 outlet;
#X restore 13 34 pd @hv_obj __switchcase seed;
#X connect 0 0 8 0;
#X connect 1 0 3 1;
#X connect 3 0 4 0;
#X connect 4 0 2 0;
#X connect 6 0 3 0;
#X connect 7 0 6 1;
#X connect 8 0 7 0;
#X connect 8 1 6 0;
