#N canvas 932 23 172 215 10;
#X obj 71 18 inlet~;
#X obj 16 18 inlet~;
#X obj 16 163 outlet~;
#N canvas 0 22 450 300 @hv_obj 0;
#X obj 175 149 outlet~;
#X obj 173 75 inlet~;
#X restore 16 96 pd @hv_obj __del1~f;
#X obj 31 64 *~;
#X obj 16 141 -~;
#X connect 0 0 4 1;
#X connect 1 0 3 0;
#X connect 1 0 4 0;
#X connect 3 0 5 0;
#X connect 4 0 5 1;
#X connect 5 0 2 0;
