#N canvas 714 389 383 150 10;
#X obj 12 114 outlet~;
#N canvas 0 22 450 300 @hv_obj 0;
#X obj 55 136 outlet~;
#X obj 54 74 inlet~;
#X obj 130 77 inlet~;
#X restore 12 86 pd @hv_obj __samphold~f;
#X obj 12 12 inlet~;
#X obj 147 12 inlet~;
#N canvas 0 22 450 300 @hv_obj 0;
#X obj 175 149 outlet~;
#X obj 173 75 inlet~;
#X restore 246 38 pd @hv_obj __del1~f;
#N canvas 0 22 450 300 @hv_obj 0;
#X obj 216 44 inlet~;
#X obj 139 45 inlet~;
#X obj 172 91 outlet~;
#X restore 147 61 pd @hv_obj __lt~f;
#X connect 1 0 0 0;
#X connect 2 0 1 0;
#X connect 3 0 4 0;
#X connect 3 0 5 0;
#X connect 4 0 5 1;
#X connect 5 0 1 1;
