#N canvas 170 337 302 168 10;
#N canvas 0 23 450 300 @hv_obj 0;
#X obj 163 70 inlet~;
#X obj 156 144 outlet~;
#X restore 135 69 pd @hv_obj __sqrt~f;
#X obj 30 19 inlet~;
#X obj 30 114 outlet~;
#N canvas 467 216 450 300 @hv_obj 0;
#X obj 217 60 inlet~;
#X obj 120 60 inlet~;
#X obj 170 183 outlet~;
#X connect 1 0 2 0;
#X restore 30 90 pd @hv_obj __and~f;
#X obj 129 19 sig~ 0;
#N canvas 715 101 191 233 @hv_obj 0;
#X obj 49 83 -~;
#X obj 50 109 clip~ -1e-37 0;
#X obj 49 32 inlet~;
#X obj 93 33 inlet~;
#X obj 50 174 outlet~;
#X obj 50 151 *~ 1e+37;
#X obj 49 58 min~;
#X obj 50 130 +~ 1e-37;
#X connect 0 0 1 0;
#X connect 1 0 7 0;
#X connect 2 0 6 0;
#X connect 2 0 0 1;
#X connect 3 0 6 1;
#X connect 5 0 4 0;
#X connect 6 0 0 0;
#X connect 7 0 5 0;
#X restore 30 42 pd @hv_obj __gt~f;
#X connect 0 0 3 1;
#X connect 1 0 5 0;
#X connect 1 0 0 0;
#X connect 3 0 2 0;
#X connect 4 0 5 1;
#X connect 5 0 3 0;
