#N canvas 648 404 450 300 12;
#X obj 47 31 inlet;
#X obj 47 185 outlet;
#X obj 47 57 unpack f f;
#X obj 96 184 outlet;
#X obj 47 142 spigot;
#X obj 86 99 != 0;
#X obj 96 141 spigot;
#X connect 0 0 2 0;
#X connect 2 0 4 0;
#X connect 2 1 5 0;
#X connect 2 1 6 0;
#X connect 4 0 1 0;
#X connect 5 0 4 1;
#X connect 5 0 6 1;
#X connect 6 0 3 0;
