#N canvas 566 310 291 266 10;
#X obj 28 26 inlet;
#X obj 107 26 inlet;
#X obj 28 196 outlet;
#X obj 220 189 outlet;
#X obj 220 149 f;
#X obj 28 106 t b b;
#X obj 193 109 t b f;
#X obj 28 156 f \$1;
#N canvas 0 22 201 165 @hv_obj 0;
#X obj 34 25 inlet;
#X obj 34 97 outlet;
#X obj 86 93 outlet;
#X restore 28 66 pd @hv_obj __switchcase bang;
#X text 27 235 @hv_arg \$1 k float 0 false;
#X connect 0 0 8 0;
#X connect 1 0 7 1;
#X connect 4 0 3 0;
#X connect 5 0 7 0;
#X connect 5 1 4 0;
#X connect 6 0 7 0;
#X connect 6 1 4 0;
#X connect 7 0 2 0;
#X connect 8 0 5 0;
#X connect 8 1 6 0;
