#N canvas 117 51 500 497 10;
#X obj 9 196 *~;
#N canvas 0 22 450 300 @hv_obj 0;
#X obj 146 77 inlet;
#X obj 147 120 outlet;
#X restore 24 152 pd @hv_obj system;
#X msg 24 130 table \$1 size;
#N canvas 0 22 450 300 @hv_obj 0;
#X obj 150 61 inlet;
#X obj 147 118 outlet;
#X restore 24 108 pd @hv_obj __var \$1;
#X obj 9 431 outlet~;
#X obj 24 359 -~;
#X obj 52 359 -~;
#X obj 24 383 *~;
#X obj 9 406 +~;
#X text 78 360 linear interpolation;
#N canvas 0 22 450 300 @hv_obj 0;
#X obj 160 52 inlet~;
#X obj 173 97 outlet~;
#X restore 9 233 pd @hv_obj __floor~f;
#N canvas 0 23 450 300 @hv_obj 0;
#X obj 165 46 inlet~;
#X obj 169 185 outlet~;
#X restore 9 259 pd @hv_obj __cast~fi;
#N canvas 0 23 450 300 @hv_obj 0;
#X obj 232 43 inlet~;
#X obj 169 185 outlet~;
#X obj 165 46 inlet~;
#X restore 180 288 pd @hv_obj __add~i;
#N canvas 0 22 450 300 @hv_obj 0;
#X obj 173 75 inlet;
#X obj 175 149 outlet~;
#X restore 285 266 pd @hv_obj __var_k~i 1;
#X text 6 455 @hv_arg \$1 table string "" true;
#N canvas 0 23 450 300 @hv_obj 0;
#X obj 165 46 inlet~;
#X obj 169 185 outlet~;
#X obj 280 42 inlet;
#X restore 180 310 pd @hv_obj __tabread~if \$1;
#N canvas 0 23 450 300 @hv_obj 0;
#X obj 165 46 inlet~;
#X obj 169 185 outlet~;
#X obj 249 48 inlet;
#X restore 9 310 pd @hv_obj __tabread~if \$1;
#X obj 24 174 - 2;
#N canvas 0 22 450 300 @hv_obj 0;
#X obj 169 24 inlet;
#X obj 221 83 outlet;
#X obj 159 83 outlet;
#X restore 162 29 pd @hv_obj __switchcase set;
#N canvas 0 22 450 300 @hv_obj 0;
#X obj 178 47 inlet;
#X obj 165 128 outlet;
#X restore 162 52 pd @hv_obj slice 1 1;
#X obj 108 39 inlet;
#X obj 24 85 loadbang -1;
#N canvas 0 22 450 300 @hv_obj 0;
#X obj 170 45 inlet;
#X obj 127 48 inlet;
#X obj 138 82 outlet~;
#X restore 9 62 pd @hv_obj phasor;
#X obj 9 3 inlet -~>;
#X connect 0 0 10 0;
#X connect 0 0 6 0;
#X connect 1 0 17 0;
#X connect 2 0 1 0;
#X connect 3 0 2 0;
#X connect 5 0 7 0;
#X connect 6 0 7 1;
#X connect 7 0 8 1;
#X connect 8 0 4 0;
#X connect 10 0 6 1;
#X connect 10 0 11 0;
#X connect 11 0 16 0;
#X connect 11 0 12 0;
#X connect 12 0 15 0;
#X connect 13 0 12 1;
#X connect 15 0 5 0;
#X connect 16 0 8 0;
#X connect 16 0 5 1;
#X connect 17 0 0 1;
#X connect 18 0 19 0;
#X connect 19 0 3 0;
#X connect 19 0 16 1;
#X connect 19 0 15 1;
#X connect 20 0 22 1;
#X connect 21 0 3 0;
#X connect 22 0 0 0;
#X connect 23 0 18 0;
#X connect 23 0 22 0;
