#N canvas 451 572 294 338 10;
#X obj 13 10 inlet -->;
#X obj 64 272 outlet -->;
#N canvas 0 22 450 300 @hv_obj 0;
#X obj 169 52 inlet;
#X obj 244 58 inlet;
#X obj 189 127 outlet;
#X restore 64 242 pd @hv_obj __tabread \$1;
#X obj 13 32 route set;
#X text 63 293 @hv_arg \$1 table string "" true;
#N canvas 0 22 450 300 @hv_obj 0;
#X obj 146 77 inlet;
#X obj 147 120 outlet;
#X restore 105 152 pd @hv_obj system;
#X obj 64 92 max 0;
#X obj 64 62 t f b;
#X obj 105 92 symbol \$1;
#X obj 64 212 min 0;
#X msg 105 122 table \$1 length;
#X obj 105 182 - 1;
#X connect 0 0 3 0;
#X connect 2 0 1 0;
#X connect 3 0 2 1;
#X connect 3 1 7 0;
#X connect 5 0 11 0;
#X connect 6 0 9 0;
#X connect 7 0 6 0;
#X connect 7 1 8 0;
#X connect 8 0 10 0;
#X connect 9 0 2 0;
#X connect 10 0 5 0;
#X connect 11 0 9 1;
