#N canvas 536 160 472 533 10;
#N canvas 107 52 450 300 @hv_obj 0;
#X obj 145 102 inlet;
#X obj 345 193 outlet;
#X obj 236 180 outlet;
#X obj 159 188 outlet;
#X obj 291 186 outlet;
#X restore 80 35 pd @hv_obj __switchcase start stop set;
#N canvas 0 22 450 300 @hv_obj 0;
#X obj 174 66 inlet;
#X obj 176 154 outlet;
#X obj 256 66 inlet;
#X obj 316 65 inlet;
#X restore 230 57 pd @hv_obj slice 1 1;
#N canvas 0 23 450 300 @hv_obj 0;
#X obj 174 66 inlet;
#X obj 193 152 outlet;
#X obj 256 66 inlet;
#X obj 316 65 inlet;
#X obj 259 153 outlet;
#X restore 80 57 pd @hv_obj slice 1 1;
#X text 8 499 @hv_arg \$1 table string "" true;
#N canvas 0 22 450 300 @hv_obj 0;
#X obj 169 68 inlet;
#X obj 273 67 inlet;
#X obj 96 70 inlet~;
#X restore 9 479 pd @hv_obj __tabwrite_stoppable~f \$1;
#X text 234 479 tabwrite~ starts in stopped state;
#X obj 320 296 / 1000;
#X obj 305 318 /;
#X msg 305 80 0;
#X text 366 296 samples per ms;
#X text 329 319 ms per sample;
#N canvas 0 22 450 300 @hv_obj 0;
#X obj 151 67 inlet;
#X obj 174 161 outlet;
#X restore 336 167 pd @hv_obj system;
#X msg 336 143 table \$1 size;
#X obj 305 187 -;
#X obj 305 207 * -1;
#X obj 305 340 t a a a;
#X text 39 178 TODO(mhroth): deal with OOB indicies;
#X msg 316 363 clear;
#X msg 152 446 stop;
#N canvas 0 22 450 300 @hv_obj 0;
#X obj 198 56 inlet;
#X obj 128 57 inlet;
#X obj 137 128 outlet;
#X restore 305 385 pd @hv_obj __delay;
#X text 79 3 NOTE(mhroth): there is supposed to be a control;
#X text 78 16 connection from the left inlet to the switchcase;
#X msg 320 249 samplerate;
#N canvas 0 22 450 300 @hv_obj 0;
#X obj 119 57 inlet;
#X obj 119 97 outlet;
#X restore 320 273 pd @hv_obj system;
#N canvas 0 22 450 300 @hv_obj 0;
#X obj 173 49 inlet;
#X obj 172 144 outlet;
#X obj 259 42 inlet;
#X restore 336 120 pd @hv_obj __var \$1;
#X obj 336 97 loadbang;
#X obj 320 226 loadbang;
#X obj 164 420 loadbang;
#X msg 197 81 0;
#X obj 9 35 inlet~ -~>;
#X connect 0 0 2 0;
#X connect 0 1 18 0;
#X connect 0 2 1 0;
#X connect 0 3 8 0;
#X connect 1 0 4 2;
#X connect 1 0 24 0;
#X connect 2 0 4 1;
#X connect 2 0 13 0;
#X connect 2 1 28 0;
#X connect 6 0 7 1;
#X connect 7 0 15 0;
#X connect 8 0 4 1;
#X connect 8 0 13 0;
#X connect 11 0 13 1;
#X connect 12 0 11 0;
#X connect 13 0 14 0;
#X connect 14 0 7 0;
#X connect 15 0 19 0;
#X connect 15 1 19 1;
#X connect 15 2 17 0;
#X connect 17 0 19 0;
#X connect 18 0 4 1;
#X connect 19 0 18 0;
#X connect 22 0 23 0;
#X connect 23 0 6 0;
#X connect 24 0 12 0;
#X connect 25 0 24 0;
#X connect 26 0 22 0;
#X connect 27 0 18 0;
#X connect 28 0 4 1;
#X connect 28 0 13 0;
#X connect 29 0 4 0;
#X connect 29 0 0 0;
