#N canvas 876 191 289 310 10;
#X obj 148 141 outlet;
#X obj 91 74 unpack f f;
#X text 165 74 touch channel;
#X obj 31 40 r __hv_touchin;
#X obj 31 261 outlet;
#X obj 126 167 loadbang;
#X obj 126 213 == 0;
#X obj 31 168 route \$1;
#X obj 126 191 i \$1;
#X msg 31 142 \$2 \$1;
#X obj 91 235 spigot;
#X msg 91 209 \$1;
#X obj 148 108 + 1;
#X connect 1 1 12 0;
#X connect 3 0 1 0;
#X connect 3 0 9 0;
#X connect 5 0 8 0;
#X connect 6 0 10 1;
#X connect 7 0 4 0;
#X connect 7 1 11 0;
#X connect 8 0 6 0;
#X connect 9 0 7 0;
#X connect 10 0 4 0;
#X connect 11 0 10 0;
#X connect 12 0 0 0;
