#N canvas 114 229 459 438 10;
#X obj 209 337 outlet;
#X obj 152 76 unpack f f;
#X obj 50 334 outlet;
#X obj 83 104 loadbang;
#X obj 83 174 == 0;
#X obj 83 128 i \$1;
#X obj 50 266 spigot;
#X obj 209 101 + 1;
#X obj 209 236 spigot;
#X obj 215 175 ==;
#X obj 152 237 spigot;
#X obj 215 200 t f f;
#X obj 209 313 max 1;
#X obj 83 197 t f f;
#X obj 150 270 spigot;
#X obj 152 47 r __hv_touchin;
#X text 226 78 pressure value and channel/port;
#X connect 1 0 10 0;
#X connect 1 0 6 0;
#X connect 1 1 7 0;
#X connect 3 0 5 0;
#X connect 4 0 13 0;
#X connect 5 0 4 0;
#X connect 5 0 9 1;
#X connect 6 0 2 0;
#X connect 7 0 9 0;
#X connect 7 0 14 0;
#X connect 7 0 8 0;
#X connect 8 0 12 0;
#X connect 9 0 11 0;
#X connect 10 0 2 0;
#X connect 11 0 10 1;
#X connect 11 1 8 1;
#X connect 12 0 0 0;
#X connect 13 0 6 1;
#X connect 13 1 14 1;
#X connect 14 0 12 0;
#X connect 15 0 1 0;
