#N canvas 121 411 250 478 10;
#X obj 39 26 inlet;
#X obj 78 236 t f f;
#X obj 78 296 spigot 0;
#X obj 123 266 <;
#X obj 78 206 f;
#X obj 125 167 + 1;
#X obj 105 357 outlet;
#X obj 39 106 moses 1;
#X obj 39 76 int;
#X obj 78 326 t f b;
#X obj 170 24 inlet;
#X msg 170 76 0;
#X obj 39 48 t f b;
#X msg 66 76 1;
#X obj 125 136 spigot 1;
#X msg 39 394 input needs to be >= 1;
#X obj 39 424 print (heavy) until error;
#X obj 78 167 f 0;
#X obj 78 136 t b f;
#X connect 0 0 12 0;
#X connect 1 0 2 0;
#X connect 1 1 3 0;
#X connect 2 0 9 0;
#X connect 3 0 2 1;
#X connect 4 0 1 0;
#X connect 5 0 4 0;
#X connect 7 0 15 0;
#X connect 7 1 18 0;
#X connect 8 0 7 0;
#X connect 9 0 14 0;
#X connect 9 1 6 0;
#X connect 10 0 11 0;
#X connect 11 0 14 1;
#X connect 12 0 8 0;
#X connect 12 1 13 0;
#X connect 13 0 14 1;
#X connect 14 0 5 0;
#X connect 15 0 16 0;
#X connect 17 0 4 0;
#X connect 18 0 17 0;
#X connect 18 1 3 1;
#X coords 0 478 1 477 111 106 0;
