#N canvas 0 22 451 274 10;
#X obj 107 36 noise~;
#X obj 187 37 noise~;
#X obj 293 34 noise~;
#X obj 107 80 *~ 0.5;
#X obj 187 81 *~ 0.2;
#X obj 218 136 osc~ 0.1;
#X obj 52 204 *~;
#X obj 219 163 *~ 0.0001256;
#X obj 292 54 hip~ 7000;
#X obj 365 35 noise~;
#X obj 364 55 hip~ 7000;
#X obj 292 79 *~ 0.005;
#X obj 107 58 bp~ 200 30;
#X obj 37 36 noise~;
#X obj 187 58 bp~ 1200 40;
#X obj 37 58 lop~ 50;
#X obj 37 80 *~ 0.2;
#X obj 220 188 +~ 0.005;
#X obj 52 225 dac~;
#X connect 0 0 12 0;
#X connect 1 0 14 0;
#X connect 2 0 8 0;
#X connect 3 0 6 0;
#X connect 4 0 6 0;
#X connect 5 0 7 0;
#X connect 6 0 18 0;
#X connect 6 0 18 1;
#X connect 7 0 17 0;
#X connect 8 0 11 0;
#X connect 9 0 10 0;
#X connect 10 0 11 0;
#X connect 11 0 6 0;
#X connect 12 0 3 0;
#X connect 13 0 15 0;
#X connect 14 0 4 0;
#X connect 15 0 16 0;
#X connect 16 0 6 0;
#X connect 17 0 6 1;
