#N canvas 429 182 532 377 10;
#X obj 14 59 inlet~;
#X obj 73 84 *~ 1400;
#X obj 306 152 vline~;
#X msg 359 101 1 1000;
#X obj 232 54 loadbang;
#X msg 232 101 1 0;
#X msg 308 101 0 1000;
#X obj 232 154 vline~;
#X msg 267 101 0 10;
#X obj 72 106 gg_snapshot;
#X obj 308 74 r f3;
#X obj 73 60 phasor~ 0.4;
#X obj 267 74 r s1;
#X obj 57 134 bp~ 1 40;
#X obj 157 108 noise~;
#X obj 16 256 dac~;
#X obj 15 216 *~ 1;
#X obj 56 216 *~ 1;
#X connect 0 0 13 0;
#X connect 0 0 16 0;
#X connect 1 0 9 0;
#X connect 2 0 17 1;
#X connect 3 0 2 0;
#X connect 4 0 5 0;
#X connect 5 0 7 0;
#X connect 6 0 7 0;
#X connect 7 0 16 1;
#X connect 8 0 2 0;
#X connect 9 0 13 1;
#X connect 10 0 3 0;
#X connect 10 0 6 0;
#X connect 11 0 1 0;
#X connect 12 0 5 0;
#X connect 12 0 8 0;
#X connect 13 0 17 0;
#X connect 14 0 13 0;
#X connect 16 0 15 0;
#X connect 17 0 15 1;
