#N canvas 702 23 312 255 10;
#N canvas 0 22 450 300 @hv_obj 0;
#X obj 55 136 outlet~;
#X obj 55 75 inlet~;
#X obj 190 74 inlet;
#X obj 139 74 inlet;
#X restore 25 155 pd @hv_obj __conv~f \$1 \$2;
#X text 24 232 @hv_arg \$2 size int 0 false;
#X text 24 210 @hv_arg \$1 table string "" true;
#X obj 25 15 inlet~;
#X obj 172 65 loadbang;
#X msg 172 110 table \$1 size;
#N canvas 0 22 450 300 @hv_obj 0;
#X obj 146 77 inlet;
#X obj 147 120 outlet;
#X restore 172 133 pd @hv_obj system;
#X text 37 46 measured after initialisation;
#X text 37 35 NOTE(mhroth): ensure that the table size is;
#X obj 172 87 symbol \$1;
#X obj 25 183 outlet~;
#X obj 98 132 inlet;
#X connect 0 0 10 0;
#X connect 3 0 0 0;
#X connect 4 0 9 0;
#X connect 5 0 6 0;
#X connect 6 0 0 2;
#X connect 9 0 5 0;
#X connect 11 0 0 1;
