#N canvas 137 197 531 225 10;
#N canvas 0 22 1061 416 @hv_obj 0;
#X obj 200 60 inlet~;
#X obj 140 50 inlet~;
#X obj 338 65 inlet~;
#X obj 278 55 inlet~;
#X obj 288 147 outlet~;
#X obj 146 146 outlet~;
#X obj 210 147 outlet~;
#X obj 415 71 inlet;
#X restore 30 140 pd @hv_obj __lorenz~f;
#X obj 30 29 inlet~;
#X obj 60 50 inlet~;
#X obj 91 70 inlet~;
#X obj 122 90 inlet~;
#X obj 30 170 outlet~ x;
#X obj 91 170 outlet~ y;
#X obj 153 170 outlet~ z;
#X text 175 86 NOTE(joe): there is supposed to be a control;
#X obj 153 117 route xyz;
#X text 174 99 connection from the first [inlet~] to the [route];
#X connect 0 0 5 0;
#X connect 0 1 6 0;
#X connect 0 2 7 0;
#X connect 1 0 0 0;
#X connect 2 0 0 1;
#X connect 3 0 0 2;
#X connect 4 0 0 3;
#X connect 9 0 0 4;
