#N canvas 441 234 462 370 12;
#X obj 85 85 r freq @hv_param 100 2000 500;
#X obj 85 177 osc~;
#X obj 85 211 *~;
#X obj 86 250 dac~;
#X obj 147 122 r gain @hv_param 0 1 0.5;
#X msg 147 151 \$1 100;
#X obj 147 176 line~;
#X connect 0 0 1 0;
#X connect 1 0 2 0;
#X connect 2 0 3 0;
#X connect 2 0 3 1;
#X connect 4 0 5 0;
#X connect 5 0 6 0;
#X connect 6 0 2 1;
