#N canvas 446 209 231 190 10;
#X obj 14 9 loadbang;
#X obj 14 129 line~;
#X obj 14 152 dac~ 1;
#X obj 93 73 del 500;
#X msg 14 73 1 2000;
#X obj 14 33 t a a a a;
#X msg 63 73 0;
#X obj 147 73 del 750;
#X msg 93 95 1 500;
#X msg 147 95 1;
#X connect 0 0 5 0;
#X connect 1 0 2 0;
#X connect 3 0 8 0;
#X connect 4 0 1 0;
#X connect 5 0 4 0;
#X connect 5 1 6 0;
#X connect 5 2 3 0;
#X connect 5 3 7 0;
#X connect 6 0 1 0;
#X connect 7 0 9 0;
#X connect 8 0 1 0;
#X connect 9 0 1 0;
