#N canvas 406 249 247 281 10;
#X obj 84 155 line~;
#X obj 84 181 phasor~;
#X obj 60 62 t b b b;
#X msg 147 115 110;
#X msg 84 115 880 500;
#X obj 42 92 del 750;
#X obj 60 30 loadbang;
#X obj 140 29 bng 15 250 50 0 empty empty empty 17 7 0 10 -262144 -1
-1;
#X msg 42 115 1100;
#X obj 84 209 dac~ 1;
#X connect 0 0 1 0;
#X connect 1 0 9 0;
#X connect 2 0 5 0;
#X connect 2 1 4 0;
#X connect 2 2 3 0;
#X connect 3 0 0 0;
#X connect 4 0 0 0;
#X connect 5 0 8 0;
#X connect 6 0 2 0;
#X connect 7 0 2 0;
#X connect 8 0 0 0;
