#N canvas 121 47 319 411 10;
#X obj 26 356 dac~;
#X obj 128 99 hip~ 1000;
#X obj 197 99 lop~ 1;
#X obj 197 159 *~;
#X obj 197 189 *~;
#X obj 197 128 *~ 10;
#X obj 26 189 clip~ -0.9 0.9;
#X obj 26 161 hip~ 25;
#X obj 26 99 bp~ 30 5;
#X obj 26 33 noise~;
#X obj 26 314 *~ 0.2;
#X obj 128 258 *~;
#X obj 26 129 *~ 70;
#X obj 197 219 *~ 600;
#X connect 1 0 11 0;
#X connect 2 0 5 0;
#X connect 3 0 4 0;
#X connect 3 0 4 1;
#X connect 4 0 13 0;
#X connect 5 0 3 0;
#X connect 5 0 3 1;
#X connect 6 0 10 0;
#X connect 7 0 6 0;
#X connect 8 0 12 0;
#X connect 9 0 2 0;
#X connect 9 0 8 0;
#X connect 9 0 1 0;
#X connect 10 0 0 0;
#X connect 10 0 0 1;
#X connect 11 0 10 0;
#X connect 12 0 7 0;
#X connect 13 0 11 1;
