#N canvas 223 22 329 856 10;
#X obj 81 36 bp~ 1000 2;
#X obj 81 56 bp~ 1000 2;
#X obj 81 76 bp~ 1000 2;
#X obj 81 96 bp~ 1000 2;
#X obj 81 116 bp~ 1000 2;
#X obj 81 136 bp~ 1000 2;
#X obj 81 156 bp~ 1000 2;
#X obj 81 176 bp~ 1000 2;
#X obj 81 196 bp~ 1000 2;
#X obj 81 216 bp~ 1000 2;
#X obj 81 236 bp~ 1000 2;
#X obj 81 256 bp~ 1000 2;
#X obj 81 276 bp~ 1000 2;
#X obj 81 296 bp~ 1000 2;
#X obj 81 316 bp~ 1000 2;
#X obj 81 336 bp~ 1000 2;
#X obj 81 356 bp~ 1000 2;
#X obj 81 376 bp~ 1000 2;
#X obj 81 396 bp~ 1000 2;
#X obj 81 416 bp~ 1000 2;
#X obj 81 436 bp~ 1000 2;
#X obj 81 456 bp~ 1000 2;
#X obj 81 476 bp~ 1000 2;
#X obj 81 496 bp~ 1000 2;
#X obj 81 516 bp~ 1000 2;
#X obj 81 536 bp~ 1000 2;
#X obj 81 556 bp~ 1000 2;
#X obj 81 576 bp~ 1000 2;
#X obj 81 596 bp~ 1000 2;
#X obj 81 616 bp~ 1000 2;
#X obj 81 636 bp~ 1000 2;
#X obj 81 656 bp~ 1000 2;
#X obj 81 676 bp~ 1000 2;
#X obj 81 696 bp~ 1000 2;
#X obj 81 716 bp~ 1000 2;
#X obj 81 736 bp~ 1000 2;
#X obj 81 756 bp~ 1000 2;
#X obj 81 776 bp~ 1000 2;
#X obj 81 796 bp~ 1000 2;
#X obj 81 816 bp~ 1000 2;
#X obj 81 836 bp~ 1000 2;
#X obj 81 856 bp~ 1000 2;
#X obj 81 876 bp~ 1000 2;
#X obj 81 896 bp~ 1000 2;
#X obj 81 916 bp~ 1000 2;
#X obj 81 936 bp~ 1000 2;
#X obj 81 956 bp~ 1000 2;
#X obj 81 976 bp~ 1000 2;
#X obj 81 996 bp~ 1000 2;
#X obj 81 1016 bp~ 1000 2;
#X obj 81 1038 dac~;
#X obj 81 16 sig~ 1;
#X connect 0 0 1 0;
#X connect 1 0 2 0;
#X connect 2 0 3 0;
#X connect 3 0 4 0;
#X connect 4 0 5 0;
#X connect 5 0 6 0;
#X connect 6 0 7 0;
#X connect 7 0 8 0;
#X connect 8 0 9 0;
#X connect 9 0 10 0;
#X connect 10 0 11 0;
#X connect 11 0 12 0;
#X connect 12 0 13 0;
#X connect 13 0 14 0;
#X connect 14 0 15 0;
#X connect 15 0 16 0;
#X connect 16 0 17 0;
#X connect 17 0 18 0;
#X connect 18 0 19 0;
#X connect 19 0 20 0;
#X connect 20 0 21 0;
#X connect 21 0 22 0;
#X connect 22 0 23 0;
#X connect 23 0 24 0;
#X connect 24 0 25 0;
#X connect 25 0 26 0;
#X connect 26 0 27 0;
#X connect 27 0 28 0;
#X connect 28 0 29 0;
#X connect 29 0 30 0;
#X connect 30 0 31 0;
#X connect 31 0 32 0;
#X connect 32 0 33 0;
#X connect 33 0 34 0;
#X connect 34 0 35 0;
#X connect 35 0 36 0;
#X connect 36 0 37 0;
#X connect 37 0 38 0;
#X connect 38 0 39 0;
#X connect 39 0 40 0;
#X connect 40 0 41 0;
#X connect 41 0 42 0;
#X connect 42 0 43 0;
#X connect 43 0 44 0;
#X connect 44 0 45 0;
#X connect 45 0 46 0;
#X connect 46 0 47 0;
#X connect 47 0 48 0;
#X connect 48 0 49 0;
#X connect 49 0 50 0;
#X connect 49 0 50 1;
#X connect 51 0 0 0;
