#N canvas 121 47 618 507 10;
#X obj 26 476 dac~;
#X obj 239 328 *~;
#X obj 307 149 lop~ 1;
#X obj 307 209 *~;
#X obj 239 149 hip~ 1000;
#X obj 307 239 *~;
#X obj 307 179 *~ 10;
#X obj 307 269 *~ 600;
#X obj 359 328 clip~ -0.9 0.9;
#X obj 359 298 hip~ 25;
#X obj 359 238 bp~ 30 5;
#X obj 359 268 *~ 100;
#X obj 128 146 lop~ 1;
#X obj 128 206 *~;
#X obj 128 236 *~;
#X obj 128 176 *~ 10;
#X obj 128 266 *~ 600;
#X obj 26 328 clip~ -0.9 0.9;
#X obj 26 298 hip~ 25;
#X obj 26 238 bp~ 30 5;
#X obj 26 268 *~ 100;
#X obj 359 33 noise~;
#X obj 26 33 noise~;
#X obj 26 434 *~ 0.2;
#X obj 461 73 moses 1;
#X obj 461 53 random 2;
#X obj 547 213 line~;
#X obj 547 241 *~;
#X obj 461 153 t f f;
#X obj 433 283 bp~ 4000 1;
#X obj 492 372 *~;
#X obj 500 213 + 7200;
#X obj 500 193 * 250;
#X obj 500 93 t b;
#X obj 500 113 random 30;
#X obj 461 113 t b;
#X obj 461 133 random 30;
#X obj 500 153 t f f;
#X obj 461 193 * 50;
#X obj 461 213 + 500;
#X obj 461 243 t f;
#X msg 547 193 0.7 \, 0 \$1;
#N canvas 0 22 450 300 rand-trigger 0;
#X obj 80 216 delay 1000;
#X obj 80 236 t b b;
#X obj 80 116 log;
#X obj 80 76 random 2000;
#X obj 80 96 / 2000;
#X obj 80 46 loadbang;
#X obj 80 196 t b f;
#X obj 80 176 min 3000;
#X obj 80 156 max 30;
#X obj 80 258 outlet;
#X obj 80 136 * -100;
#X connect 0 0 1 0;
#X connect 1 0 9 0;
#X connect 1 1 3 0;
#X connect 2 0 10 0;
#X connect 3 0 4 0;
#X connect 4 0 2 0;
#X connect 5 0 3 0;
#X connect 6 0 0 0;
#X connect 6 1 0 1;
#X connect 7 0 6 0;
#X connect 8 0 7 0;
#X connect 10 0 8 0;
#X restore 461 33 pd rand-trigger;
#X obj 128 328 *~;
#X connect 1 0 23 0;
#X connect 2 0 6 0;
#X connect 3 0 5 0;
#X connect 3 0 5 1;
#X connect 4 0 1 0;
#X connect 4 0 43 1;
#X connect 5 0 7 0;
#X connect 6 0 3 0;
#X connect 6 0 3 1;
#X connect 7 0 1 1;
#X connect 8 0 23 0;
#X connect 9 0 8 0;
#X connect 10 0 11 0;
#X connect 11 0 9 0;
#X connect 12 0 15 0;
#X connect 13 0 14 0;
#X connect 13 0 14 1;
#X connect 14 0 16 0;
#X connect 15 0 13 0;
#X connect 15 0 13 1;
#X connect 16 0 43 0;
#X connect 17 0 23 0;
#X connect 18 0 17 0;
#X connect 19 0 20 0;
#X connect 20 0 18 0;
#X connect 21 0 4 0;
#X connect 21 0 2 0;
#X connect 21 0 10 0;
#X connect 21 0 29 0;
#X connect 22 0 12 0;
#X connect 22 0 19 0;
#X connect 23 0 0 0;
#X connect 23 0 0 1;
#X connect 24 0 35 0;
#X connect 24 1 33 0;
#X connect 25 0 24 0;
#X connect 26 0 27 0;
#X connect 26 0 27 1;
#X connect 27 0 30 1;
#X connect 28 0 38 0;
#X connect 28 1 41 0;
#X connect 29 0 30 0;
#X connect 30 0 23 0;
#X connect 31 0 40 0;
#X connect 32 0 31 0;
#X connect 33 0 34 0;
#X connect 34 0 37 0;
#X connect 35 0 36 0;
#X connect 36 0 28 0;
#X connect 37 0 32 0;
#X connect 37 1 41 0;
#X connect 38 0 39 0;
#X connect 39 0 40 0;
#X connect 40 0 29 1;
#X connect 41 0 26 0;
#X connect 42 0 25 0;
#X connect 43 0 23 0;
