#N canvas 268 61 512 452 12;
#X obj 89 84 r freq @hv_param 100 2000 500;
#X obj 89 167 osc~;
#X obj 89 275 *~;
#X obj 89 308 dac~;
#X obj 150 111 r gain @hv_param 0 1 0.5;
#X msg 150 140 \$1 100;
#X obj 150 169 line~;
#X obj 89 194 *~;
#X obj 150 215 r mute_toggle @hv_param 0 1 1 bool;
#X obj 150 244 r mute_momentary @hv_param 0 1 0 trig;
#X connect 0 0 1 0;
#X connect 1 0 7 0;
#X connect 2 0 3 0;
#X connect 2 0 3 1;
#X connect 4 0 5 0;
#X connect 5 0 6 0;
#X connect 6 0 7 1;
#X connect 7 0 2 0;
#X connect 8 0 2 1;
#X connect 9 0 2 1;
