#N canvas 769 445 438 195 12;
#X obj 30 25 bendin;
#X obj 192 42 hsl 128 15 -8192 8192 0 0 empty empty empty -2 -8 0 10
-262144 -1 -1 8900 1;
#X obj 121 9 r bend @hv_param 0 16383 8192;
#X obj 30 58 print;
#X obj 121 75 bendout;
#X obj 121 40 - 8192;
#X text 17 106 For compatibility reasons we reproduce the inconsistent
[bendin] and [bendout] behaviour. While [bendin] outputs values from
0 to 16383 \, [bendout] takes values from -8192 to 8191 - this likely
won't change., f 55;
#X connect 0 0 3 0;
#X connect 1 0 4 0;
#X connect 2 0 5 0;
#X connect 5 0 4 0;
