#N canvas 0 0 664 471 10;
#X obj 52 62 inlet~;
#X obj 243 77 inlet;
#X obj 254 367 outlet~;
#X obj 54 101 delwrite~ \$0-delayline 150;
#X obj 54 146 metro 10;
#X obj 55 121 loadbang;
#X obj 54 169 random 150;
#X obj 53 279 vline~;
#X obj 54 308 vd~ \$0-delayline;
#X msg 58 232 \$1 10;
#X obj 253 179 select 1 0;
#X obj 242 333 *~;
#X obj 253 303 line~;
#X msg 287 265 0 1;
#X msg 253 264 1 1;
#X obj 293 335 *~;
#X obj 330 305 line~;
#X obj 332 167 loadbang;
#X msg 330 264 1 1;
#X msg 365 262 0 1;
#X obj 314 87 float \$1;
#X obj 314 46 loadbang;
#X connect 0 0 3 0;
#X connect 0 0 15 0;
#X connect 1 0 10 0;
#X connect 4 0 6 0;
#X connect 5 0 4 0;
#X connect 6 0 9 0;
#X connect 7 0 8 0;
#X connect 8 0 11 0;
#X connect 9 0 7 0;
#X connect 10 0 14 0;
#X connect 10 0 19 0;
#X connect 10 1 13 0;
#X connect 10 1 18 0;
#X connect 11 0 2 0;
#X connect 12 0 11 1;
#X connect 13 0 12 0;
#X connect 14 0 12 0;
#X connect 15 0 2 0;
#X connect 16 0 15 1;
#X connect 17 0 13 0;
#X connect 17 0 18 0;
#X connect 18 0 16 0;
#X connect 19 0 16 0;
#X connect 20 0 4 1;
#X connect 21 0 20 0;
