#N canvas 417 294 369 218 10;
#X obj 17 38 osc~ 440;
#X obj 17 151 dac~;
#X obj 32 61 r bang @hv_event;
#X msg 32 83 1 \, 0 100;
#X obj 32 105 line~;
#X obj 17 129 *~;
#X obj 17 14 r freq @hv_param 0 1000 500;
#X obj 150 61 table myTable 1024 @hv_table;
#X obj 138 104 loadbang;
#X obj 138 148 f;
#X obj 167 148 + 1;
#X obj 138 170 s freq @hv_param;
#X obj 138 126 metro 1000;
#X obj 146 193 s bang @hv_event;
#X connect 0 0 5 0;
#X connect 2 0 3 0;
#X connect 3 0 4 0;
#X connect 4 0 5 1;
#X connect 5 0 1 0;
#X connect 5 0 1 1;
#X connect 6 0 0 0;
#X connect 8 0 12 0;
#X connect 9 0 10 0;
#X connect 9 0 11 0;
#X connect 9 0 13 0;
#X connect 10 0 9 1;
#X connect 12 0 9 0;
